<?xml version="1.0" encoding="UTF-8"?>
<svg xmlns="http://www.w3.org/2000/svg" xmlns:xlink="http://www.w3.org/1999/xlink" width="1920" height="1080" viewBox="0 0 1920 1080">
<defs>
<g>
<g id="glyph-0-0">
<path d="M 0.25 -0.0820312 L 0.886719 -0.0820312 L 0.886719 -0.117188 C 0.886719 -0.136719 0.890625 -0.148438 0.898438 -0.15625 C 0.90625 -0.167969 0.914062 -0.171875 0.929688 -0.171875 C 0.941406 -0.171875 0.949219 -0.167969 0.957031 -0.15625 C 0.964844 -0.148438 0.96875 -0.136719 0.96875 -0.117188 L 0.96875 0 L 0.167969 0 L 0.167969 -0.121094 C 0.335938 -0.273438 0.5 -0.425781 0.660156 -0.582031 C 0.734375 -0.65625 0.785156 -0.710938 0.8125 -0.746094 C 0.839844 -0.777344 0.859375 -0.808594 0.871094 -0.835938 C 0.878906 -0.859375 0.882812 -0.886719 0.882812 -0.914062 C 0.882812 -0.984375 0.855469 -1.046875 0.796875 -1.101562 C 0.742188 -1.15625 0.671875 -1.183594 0.589844 -1.183594 C 0.519531 -1.183594 0.457031 -1.164062 0.398438 -1.121094 C 0.34375 -1.078125 0.308594 -1.027344 0.289062 -0.96875 C 0.285156 -0.953125 0.28125 -0.941406 0.277344 -0.9375 C 0.269531 -0.929688 0.257812 -0.925781 0.25 -0.925781 C 0.238281 -0.925781 0.226562 -0.929688 0.21875 -0.9375 C 0.210938 -0.945312 0.210938 -0.953125 0.210938 -0.964844 C 0.210938 -0.996094 0.226562 -1.039062 0.261719 -1.09375 C 0.296875 -1.148438 0.34375 -1.191406 0.402344 -1.222656 C 0.464844 -1.25 0.527344 -1.265625 0.589844 -1.265625 C 0.695312 -1.265625 0.78125 -1.230469 0.855469 -1.160156 C 0.929688 -1.089844 0.96875 -1.007812 0.96875 -0.917969 C 0.96875 -0.878906 0.960938 -0.84375 0.949219 -0.8125 C 0.9375 -0.777344 0.914062 -0.746094 0.886719 -0.707031 C 0.855469 -0.667969 0.800781 -0.613281 0.726562 -0.535156 C 0.53125 -0.34375 0.371094 -0.195312 0.25 -0.0898438 Z "/>
</g>
<g id="glyph-0-1">
<path d="M 0.253906 -0.0820312 L 0.253906 -1.070312 L 0.140625 -1.070312 C 0.121094 -1.070312 0.105469 -1.074219 0.0976562 -1.082031 C 0.0898438 -1.089844 0.0859375 -1.101562 0.0859375 -1.113281 C 0.0859375 -1.125 0.0898438 -1.136719 0.0976562 -1.140625 C 0.105469 -1.148438 0.121094 -1.152344 0.140625 -1.152344 L 0.660156 -1.152344 C 0.765625 -1.152344 0.847656 -1.125 0.914062 -1.066406 C 0.976562 -1.003906 1.011719 -0.933594 1.011719 -0.855469 C 1.011719 -0.753906 0.957031 -0.671875 0.847656 -0.609375 C 0.933594 -0.578125 0.996094 -0.539062 1.039062 -0.484375 C 1.078125 -0.433594 1.097656 -0.378906 1.097656 -0.316406 C 1.097656 -0.261719 1.085938 -0.210938 1.058594 -0.164062 C 1.03125 -0.121094 0.992188 -0.0820312 0.9375 -0.046875 C 0.882812 -0.015625 0.824219 0 0.761719 0 L 0.140625 0 C 0.121094 0 0.105469 -0.00390625 0.0976562 -0.0117188 C 0.0898438 -0.0195312 0.0859375 -0.03125 0.0859375 -0.0429688 C 0.0859375 -0.0546875 0.0898438 -0.0625 0.0976562 -0.0703125 C 0.105469 -0.078125 0.121094 -0.0820312 0.140625 -0.0820312 L 0.253906 -0.0820312 M 0.335938 -0.640625 L 0.628906 -0.640625 C 0.691406 -0.640625 0.746094 -0.652344 0.800781 -0.675781 C 0.839844 -0.695312 0.871094 -0.71875 0.894531 -0.753906 C 0.914062 -0.789062 0.925781 -0.824219 0.925781 -0.863281 C 0.925781 -0.914062 0.902344 -0.960938 0.855469 -1.003906 C 0.804688 -1.050781 0.742188 -1.070312 0.664062 -1.070312 L 0.335938 -1.070312 L 0.335938 -0.640625 M 0.335938 -0.0820312 L 0.753906 -0.0820312 C 0.808594 -0.0820312 0.855469 -0.09375 0.894531 -0.117188 C 0.933594 -0.140625 0.960938 -0.171875 0.984375 -0.207031 C 1.003906 -0.242188 1.015625 -0.277344 1.015625 -0.316406 C 1.015625 -0.355469 1 -0.398438 0.96875 -0.4375 C 0.941406 -0.476562 0.898438 -0.507812 0.847656 -0.527344 C 0.796875 -0.546875 0.722656 -0.558594 0.632812 -0.558594 L 0.335938 -0.558594 Z "/>
</g>
<g id="glyph-0-2">
<path d="M 0.648438 -1.253906 L 0.648438 -0.0820312 L 0.929688 -0.0820312 C 0.949219 -0.0820312 0.964844 -0.078125 0.972656 -0.0703125 C 0.980469 -0.0625 0.984375 -0.0546875 0.984375 -0.0429688 C 0.984375 -0.03125 0.980469 -0.0195312 0.972656 -0.0117188 C 0.964844 -0.00390625 0.949219 0 0.929688 0 L 0.28125 0 C 0.261719 0 0.246094 -0.00390625 0.238281 -0.0117188 C 0.230469 -0.0195312 0.226562 -0.03125 0.226562 -0.0429688 C 0.226562 -0.0546875 0.230469 -0.0625 0.238281 -0.0703125 C 0.246094 -0.078125 0.261719 -0.0820312 0.28125 -0.0820312 L 0.5625 -0.0820312 L 0.5625 -1.140625 L 0.292969 -1.054688 C 0.28125 -1.050781 0.269531 -1.050781 0.265625 -1.050781 C 0.253906 -1.050781 0.246094 -1.054688 0.238281 -1.0625 C 0.230469 -1.070312 0.226562 -1.078125 0.226562 -1.089844 C 0.226562 -1.101562 0.230469 -1.109375 0.234375 -1.117188 C 0.242188 -1.125 0.25 -1.128906 0.269531 -1.136719 Z "/>
</g>
</g>
</defs>
<path fill="none" stroke-width="0.124746" stroke-linecap="butt" stroke-linejoin="miter" stroke="rgb(23.137255%, 50.980392%, 96.470588%)" stroke-opacity="1" stroke-miterlimit="2" d="M 30.1875 20.1875 L 37.050781 20.1875 L 37.050781 27.28125 L 30.1875 27.28125 Z "/>
<g fill="rgb(23.137255%, 50.980392%, 96.470588%)" fill-opacity="1">
<use xlink:href="#glyph-0-0" x="30.375" y="23.671875"/>
</g>
<g fill="rgb(23.137255%, 50.980392%, 96.470588%)" fill-opacity="1">
<use xlink:href="#glyph-0-1" x="33.679688" y="23.671875"/>
</g>
<g fill="rgb(23.137255%, 50.980392%, 96.470588%)" fill-opacity="1">
<use xlink:href="#glyph-0-0" x="30.375" y="27.09375"/>
</g>
<g fill="rgb(23.137255%, 50.980392%, 96.470588%)" fill-opacity="1">
<use xlink:href="#glyph-0-2" x="33.679688" y="27.09375"/>
</g>
</svg>
