<?xml version="1.0" encoding="UTF-8"?>
<svg xmlns="http://www.w3.org/2000/svg" xmlns:xlink="http://www.w3.org/1999/xlink" width="1920" height="1080" viewBox="0 0 1920 1080">
<defs>
<g>
<g id="glyph-0-0">
<path d="M 6.320312 0 L 0.664062 0 L 0.664062 -1.832031 L 2.171875 -1.832031 L 2.171875 -8.667969 L 0.664062 -8.667969 L 0.664062 -10.5 L 6.320312 -10.5 L 6.320312 -8.667969 L 4.808594 -8.667969 L 4.808594 -1.832031 L 6.320312 -1.832031 Z "/>
</g>
<g id="glyph-0-1">
<path d="M 3.976562 0.15625 C 2.972656 0.15625 2.238281 -0.0507812 1.78125 -0.464844 C 1.324219 -0.878906 1.09375 -1.554688 1.09375 -2.496094 L 1.09375 -6.199219 L 0.148438 -6.199219 L 0.148438 -7.921875 L 1.09375 -7.921875 L 1.09375 -10.183594 L 3.5625 -10.183594 L 3.5625 -7.921875 L 5.9375 -7.921875 L 5.9375 -6.199219 L 3.5625 -6.199219 L 3.5625 -3.390625 C 3.5625 -3.113281 3.5625 -2.871094 3.570312 -2.664062 C 3.574219 -2.460938 3.609375 -2.273438 3.679688 -2.109375 C 3.746094 -1.945312 3.863281 -1.8125 4.03125 -1.71875 C 4.199219 -1.621094 4.441406 -1.574219 4.761719 -1.574219 C 4.890625 -1.574219 5.066406 -1.601562 5.277344 -1.65625 C 5.492188 -1.714844 5.640625 -1.765625 5.726562 -1.8125 L 5.9375 -1.8125 L 5.9375 -0.0703125 C 5.671875 0 5.386719 0.0546875 5.085938 0.09375 C 4.785156 0.136719 4.414062 0.15625 3.976562 0.15625 Z "/>
</g>
<g id="glyph-0-2">
<path d="M 3.136719 -10.972656 L 2.714844 -6.820312 L 1.261719 -6.820312 L 0.839844 -10.972656 Z "/>
</g>
<g id="glyph-0-3">
<path d="M 3.355469 0.21875 C 2.773438 0.21875 2.222656 0.15625 1.703125 0.0273438 C 1.183594 -0.0976562 0.753906 -0.246094 0.417969 -0.417969 L 0.417969 -2.503906 L 0.621094 -2.503906 C 0.738281 -2.414062 0.871094 -2.316406 1.023438 -2.207031 C 1.171875 -2.097656 1.382812 -1.988281 1.648438 -1.867188 C 1.878906 -1.761719 2.140625 -1.667969 2.429688 -1.589844 C 2.71875 -1.511719 3.03125 -1.472656 3.371094 -1.472656 C 3.71875 -1.472656 4.027344 -1.527344 4.292969 -1.636719 C 4.558594 -1.746094 4.691406 -1.914062 4.691406 -2.152344 C 4.691406 -2.335938 4.628906 -2.472656 4.507812 -2.566406 C 4.382812 -2.660156 4.148438 -2.75 3.792969 -2.835938 C 3.605469 -2.882812 3.367188 -2.933594 3.082031 -2.988281 C 2.796875 -3.039062 2.542969 -3.101562 2.320312 -3.171875 C 1.699219 -3.367188 1.234375 -3.652344 0.921875 -4.03125 C 0.609375 -4.410156 0.453125 -4.90625 0.453125 -5.523438 C 0.453125 -5.875 0.53125 -6.207031 0.695312 -6.519531 C 0.855469 -6.832031 1.09375 -7.113281 1.410156 -7.355469 C 1.726562 -7.597656 2.113281 -7.785156 2.578125 -7.925781 C 3.039062 -8.066406 3.5625 -8.140625 4.148438 -8.140625 C 4.703125 -8.140625 5.210938 -8.082031 5.675781 -7.972656 C 6.144531 -7.863281 6.535156 -7.730469 6.855469 -7.574219 L 6.855469 -5.570312 L 6.65625 -5.570312 C 6.574219 -5.636719 6.4375 -5.726562 6.253906 -5.835938 C 6.074219 -5.945312 5.894531 -6.042969 5.71875 -6.121094 C 5.511719 -6.214844 5.28125 -6.292969 5.023438 -6.355469 C 4.769531 -6.414062 4.507812 -6.445312 4.238281 -6.445312 C 3.882812 -6.445312 3.578125 -6.386719 3.332031 -6.261719 C 3.085938 -6.140625 2.960938 -5.976562 2.960938 -5.777344 C 2.960938 -5.597656 3.023438 -5.457031 3.144531 -5.351562 C 3.269531 -5.25 3.535156 -5.148438 3.941406 -5.050781 C 4.152344 -4.996094 4.398438 -4.949219 4.671875 -4.898438 C 4.949219 -4.847656 5.210938 -4.78125 5.464844 -4.695312 C 6.035156 -4.515625 6.464844 -4.246094 6.761719 -3.890625 C 7.054688 -3.535156 7.199219 -3.0625 7.199219 -2.476562 C 7.199219 -2.105469 7.113281 -1.75 6.941406 -1.414062 C 6.765625 -1.078125 6.519531 -0.792969 6.199219 -0.5625 C 5.859375 -0.316406 5.460938 -0.121094 5.003906 0.015625 C 4.546875 0.152344 3.996094 0.21875 3.355469 0.21875 Z "/>
</g>
<g id="glyph-0-4">
</g>
<g id="glyph-0-5">
<path d="M 8.363281 0 L 5.882812 0 L 5.882812 -3.929688 C 5.882812 -4.25 5.867188 -4.566406 5.84375 -4.882812 C 5.816406 -5.203125 5.769531 -5.433594 5.699219 -5.585938 C 5.613281 -5.765625 5.492188 -5.890625 5.332031 -5.96875 C 5.171875 -6.046875 4.957031 -6.085938 4.691406 -6.085938 C 4.488281 -6.085938 4.285156 -6.050781 4.078125 -5.972656 C 3.871094 -5.898438 3.648438 -5.777344 3.414062 -5.613281 L 3.414062 0 L 0.945312 0 L 0.945312 -10.972656 L 3.414062 -10.972656 L 3.414062 -7.046875 C 3.816406 -7.390625 4.210938 -7.65625 4.59375 -7.851562 C 4.976562 -8.042969 5.402344 -8.140625 5.867188 -8.140625 C 6.675781 -8.140625 7.292969 -7.882812 7.722656 -7.375 C 8.152344 -6.863281 8.363281 -6.125 8.363281 -5.15625 Z "/>
</g>
<g id="glyph-0-6">
<path d="M 5 0.210938 C 3.503906 0.210938 2.359375 -0.144531 1.5625 -0.859375 C 0.765625 -1.574219 0.367188 -2.59375 0.367188 -3.914062 C 0.367188 -5.207031 0.738281 -6.238281 1.480469 -7.011719 C 2.222656 -7.78125 3.261719 -8.167969 4.597656 -8.167969 C 5.8125 -8.167969 6.722656 -7.839844 7.335938 -7.1875 C 7.945312 -6.53125 8.25 -5.597656 8.25 -4.378906 L 8.25 -3.492188 L 2.84375 -3.492188 C 2.867188 -3.125 2.941406 -2.816406 3.074219 -2.570312 C 3.207031 -2.324219 3.378906 -2.128906 3.597656 -1.980469 C 3.808594 -1.835938 4.054688 -1.730469 4.335938 -1.667969 C 4.621094 -1.605469 4.925781 -1.574219 5.261719 -1.574219 C 5.546875 -1.574219 5.832031 -1.605469 6.109375 -1.667969 C 6.386719 -1.730469 6.640625 -1.816406 6.871094 -1.917969 C 7.070312 -2.007812 7.257812 -2.105469 7.429688 -2.207031 C 7.601562 -2.3125 7.742188 -2.402344 7.851562 -2.484375 L 8.109375 -2.484375 L 8.109375 -0.445312 C 7.910156 -0.363281 7.722656 -0.289062 7.558594 -0.222656 C 7.390625 -0.152344 7.160156 -0.0859375 6.871094 -0.015625 C 6.601562 0.0546875 6.324219 0.113281 6.039062 0.152344 C 5.757812 0.191406 5.410156 0.210938 5 0.210938 M 5.820312 -4.980469 C 5.804688 -5.5 5.683594 -5.898438 5.457031 -6.171875 C 5.226562 -6.445312 4.878906 -6.582031 4.40625 -6.582031 C 3.929688 -6.582031 3.554688 -6.4375 3.28125 -6.148438 C 3.011719 -5.863281 2.863281 -5.472656 2.835938 -4.980469 Z "/>
</g>
<g id="glyph-0-7">
<path d="M 6.261719 -5.585938 L 6.058594 -5.585938 C 5.964844 -5.617188 5.828125 -5.644531 5.648438 -5.660156 C 5.46875 -5.675781 5.273438 -5.683594 5.058594 -5.683594 C 4.796875 -5.683594 4.527344 -5.648438 4.242188 -5.570312 C 3.957031 -5.496094 3.679688 -5.40625 3.414062 -5.304688 L 3.414062 0 L 0.945312 0 L 0.945312 -7.921875 L 3.414062 -7.921875 L 3.414062 -6.785156 C 3.527344 -6.886719 3.683594 -7.019531 3.882812 -7.175781 C 4.082031 -7.332031 4.265625 -7.460938 4.429688 -7.554688 C 4.609375 -7.660156 4.816406 -7.753906 5.054688 -7.832031 C 5.289062 -7.910156 5.515625 -7.949219 5.726562 -7.949219 C 5.808594 -7.949219 5.894531 -7.945312 5.996094 -7.941406 C 6.09375 -7.9375 6.183594 -7.929688 6.261719 -7.921875 Z "/>
</g>
<g id="glyph-0-8">
<path d="M 3.503906 0 L 1.007812 0 L 1.007812 -2.773438 L 3.503906 -2.773438 Z "/>
</g>
</g>
</defs>
<g fill="rgb(89.803922%, 90.588235%, 92.156863%)" fill-opacity="1">
<use xlink:href="#glyph-0-0" x="30" y="34.450195"/>
<use xlink:href="#glyph-0-1" x="37" y="34.450195"/>
<use xlink:href="#glyph-0-2" x="43" y="34.450195"/>
<use xlink:href="#glyph-0-3" x="47" y="34.450195"/>
<use xlink:href="#glyph-0-4" x="54" y="34.450195"/>
<use xlink:href="#glyph-0-5" x="58" y="34.450195"/>
<use xlink:href="#glyph-0-6" x="67" y="34.450195"/>
<use xlink:href="#glyph-0-7" x="76" y="34.450195"/>
<use xlink:href="#glyph-0-6" x="82" y="34.450195"/>
<use xlink:href="#glyph-0-8" x="91" y="34.450195"/>
</g>
</svg>
