<?xml version="1.0" encoding="UTF-8"?>
<svg xmlns="http://www.w3.org/2000/svg" xmlns:xlink="http://www.w3.org/1999/xlink" width="1080" height="1920" viewBox="0 0 1080 1920">
<defs>
<g>
<g id="glyph-0-0">
<path d="M 1.613281 0 L 1.476562 -0.488281 L 0.613281 -0.488281 L 0.472656 0 L 0.0078125 0 L 0.742188 -2.480469 L 1.394531 -2.480469 L 2.128906 0 L 1.613281 0 M 1.050781 -2.027344 L 0.722656 -0.871094 L 1.371094 -0.871094 Z "/>
</g>
<g id="glyph-0-1">
<path d="M 1.824219 -0.0742188 C 1.734375 -0.0390625 1.640625 -0.0117188 1.542969 0.0078125 C 1.445312 0.0234375 1.34375 0.0351562 1.234375 0.0351562 C 1.082031 0.0351562 0.945312 0.0117188 0.824219 -0.0273438 C 0.703125 -0.0703125 0.597656 -0.132812 0.515625 -0.214844 C 0.429688 -0.296875 0.363281 -0.398438 0.320312 -0.519531 C 0.273438 -0.640625 0.253906 -0.78125 0.253906 -0.941406 C 0.253906 -1.097656 0.277344 -1.234375 0.324219 -1.363281 C 0.375 -1.488281 0.441406 -1.59375 0.53125 -1.683594 C 0.621094 -1.769531 0.726562 -1.839844 0.851562 -1.886719 C 0.976562 -1.9375 1.117188 -1.960938 1.269531 -1.960938 C 1.394531 -1.960938 1.5 -1.953125 1.585938 -1.941406 C 1.671875 -1.925781 1.746094 -1.910156 1.816406 -1.890625 L 1.816406 -1.441406 C 1.738281 -1.480469 1.652344 -1.507812 1.558594 -1.53125 C 1.46875 -1.550781 1.382812 -1.5625 1.300781 -1.5625 C 1.210938 -1.5625 1.136719 -1.546875 1.066406 -1.519531 C 1 -1.488281 0.941406 -1.449219 0.894531 -1.398438 C 0.847656 -1.347656 0.8125 -1.28125 0.789062 -1.207031 C 0.761719 -1.132812 0.75 -1.054688 0.75 -0.964844 C 0.75 -0.871094 0.761719 -0.789062 0.789062 -0.714844 C 0.816406 -0.640625 0.855469 -0.582031 0.902344 -0.527344 C 0.953125 -0.476562 1.011719 -0.4375 1.078125 -0.410156 C 1.148438 -0.382812 1.222656 -0.371094 1.304688 -0.371094 C 1.347656 -0.371094 1.390625 -0.375 1.433594 -0.378906 C 1.480469 -0.382812 1.523438 -0.394531 1.570312 -0.402344 C 1.613281 -0.414062 1.660156 -0.425781 1.703125 -0.441406 C 1.746094 -0.453125 1.785156 -0.46875 1.824219 -0.484375 Z "/>
</g>
<g id="glyph-0-2">
<path d="M 1.855469 -0.0195312 C 1.773438 0 1.6875 0.015625 1.601562 0.0273438 C 1.519531 0.0390625 1.4375 0.0429688 1.363281 0.0429688 C 1.234375 0.0429688 1.125 0.03125 1.035156 0.00390625 C 0.941406 -0.0234375 0.867188 -0.0625 0.804688 -0.117188 C 0.746094 -0.171875 0.703125 -0.242188 0.671875 -0.324219 C 0.644531 -0.410156 0.628906 -0.511719 0.628906 -0.625 L 0.628906 -1.570312 L 0.113281 -1.570312 L 0.113281 -1.929688 L 0.628906 -1.929688 L 0.628906 -2.421875 L 1.105469 -2.546875 L 1.105469 -1.929688 L 1.855469 -1.929688 L 1.855469 -1.570312 L 1.105469 -1.570312 L 1.105469 -0.660156 C 1.105469 -0.550781 1.128906 -0.46875 1.179688 -0.410156 C 1.230469 -0.355469 1.316406 -0.328125 1.4375 -0.328125 C 1.511719 -0.328125 1.585938 -0.332031 1.65625 -0.34375 C 1.730469 -0.359375 1.796875 -0.371094 1.855469 -0.390625 Z "/>
</g>
<g id="glyph-0-3">
<path d="M 1.398438 -2.457031 C 1.398438 -2.414062 1.390625 -2.375 1.375 -2.339844 C 1.363281 -2.304688 1.339844 -2.269531 1.3125 -2.242188 C 1.285156 -2.214844 1.253906 -2.195312 1.21875 -2.179688 C 1.179688 -2.164062 1.140625 -2.15625 1.097656 -2.15625 C 1.054688 -2.15625 1.015625 -2.164062 0.976562 -2.179688 C 0.941406 -2.195312 0.90625 -2.214844 0.878906 -2.242188 C 0.851562 -2.269531 0.832031 -2.304688 0.816406 -2.339844 C 0.800781 -2.375 0.792969 -2.414062 0.792969 -2.457031 C 0.792969 -2.5 0.800781 -2.539062 0.816406 -2.574219 C 0.832031 -2.613281 0.851562 -2.644531 0.878906 -2.671875 C 0.90625 -2.699219 0.941406 -2.722656 0.976562 -2.738281 C 1.015625 -2.753906 1.054688 -2.761719 1.097656 -2.761719 C 1.140625 -2.761719 1.179688 -2.753906 1.21875 -2.738281 C 1.253906 -2.722656 1.285156 -2.699219 1.3125 -2.671875 C 1.339844 -2.644531 1.363281 -2.613281 1.375 -2.574219 C 1.390625 -2.539062 1.398438 -2.5 1.398438 -2.457031 M 0.886719 -1.570312 L 0.34375 -1.570312 L 0.34375 -1.929688 L 1.363281 -1.929688 L 1.363281 -0.359375 L 1.917969 -0.359375 L 1.917969 0 L 0.273438 0 L 0.273438 -0.359375 L 0.886719 -0.359375 Z "/>
</g>
<g id="glyph-0-4">
<path d="M 1.34375 0 L 0.808594 0 L 0.0429688 -1.929688 L 0.558594 -1.929688 L 0.960938 -0.835938 L 1.082031 -0.480469 L 1.199219 -0.820312 L 1.601562 -1.929688 L 2.101562 -1.929688 Z "/>
</g>
<g id="glyph-0-5">
<path d="M 1.945312 -1.113281 C 1.945312 -1.082031 1.945312 -1.039062 1.941406 -0.988281 C 1.941406 -0.9375 1.9375 -0.890625 1.933594 -0.847656 L 0.664062 -0.847656 C 0.664062 -0.761719 0.675781 -0.6875 0.703125 -0.621094 C 0.730469 -0.558594 0.765625 -0.503906 0.8125 -0.460938 C 0.859375 -0.417969 0.917969 -0.382812 0.984375 -0.359375 C 1.050781 -0.339844 1.125 -0.328125 1.207031 -0.328125 C 1.300781 -0.328125 1.398438 -0.332031 1.507812 -0.347656 C 1.613281 -0.363281 1.726562 -0.386719 1.839844 -0.417969 L 1.839844 -0.0507812 C 1.789062 -0.0390625 1.738281 -0.0234375 1.679688 -0.0117188 C 1.621094 0 1.5625 0.0078125 1.5 0.015625 C 1.441406 0.0273438 1.378906 0.03125 1.316406 0.0351562 C 1.253906 0.0429688 1.195312 0.0429688 1.136719 0.0429688 C 0.988281 0.0429688 0.855469 0.0234375 0.742188 -0.0195312 C 0.625 -0.0625 0.527344 -0.121094 0.445312 -0.203125 C 0.363281 -0.285156 0.300781 -0.386719 0.257812 -0.507812 C 0.214844 -0.628906 0.195312 -0.765625 0.195312 -0.925781 C 0.195312 -1.082031 0.214844 -1.222656 0.257812 -1.351562 C 0.300781 -1.480469 0.363281 -1.589844 0.441406 -1.683594 C 0.519531 -1.773438 0.613281 -1.847656 0.726562 -1.894531 C 0.839844 -1.945312 0.964844 -1.972656 1.101562 -1.972656 C 1.238281 -1.972656 1.359375 -1.949219 1.464844 -1.90625 C 1.570312 -1.863281 1.65625 -1.804688 1.726562 -1.730469 C 1.800781 -1.652344 1.851562 -1.5625 1.890625 -1.457031 C 1.925781 -1.351562 1.945312 -1.238281 1.945312 -1.113281 M 1.472656 -1.179688 C 1.476562 -1.253906 1.464844 -1.320312 1.445312 -1.378906 C 1.425781 -1.433594 1.398438 -1.480469 1.363281 -1.515625 C 1.328125 -1.554688 1.289062 -1.582031 1.242188 -1.597656 C 1.195312 -1.617188 1.144531 -1.625 1.09375 -1.625 C 0.976562 -1.625 0.878906 -1.585938 0.804688 -1.507812 C 0.730469 -1.429688 0.6875 -1.320312 0.671875 -1.179688 Z "/>
</g>
<g id="glyph-0-6">
<path d="M 1.070312 -1.949219 C 1.117188 -1.949219 1.164062 -1.941406 1.203125 -1.921875 C 1.246094 -1.902344 1.28125 -1.878906 1.3125 -1.847656 C 1.34375 -1.816406 1.367188 -1.78125 1.382812 -1.738281 C 1.402344 -1.699219 1.410156 -1.652344 1.410156 -1.605469 C 1.410156 -1.558594 1.402344 -1.511719 1.382812 -1.472656 C 1.367188 -1.429688 1.34375 -1.394531 1.3125 -1.363281 C 1.28125 -1.332031 1.246094 -1.308594 1.203125 -1.292969 C 1.164062 -1.273438 1.117188 -1.265625 1.070312 -1.265625 C 1.019531 -1.265625 0.976562 -1.273438 0.933594 -1.292969 C 0.894531 -1.308594 0.859375 -1.332031 0.828125 -1.363281 C 0.796875 -1.394531 0.773438 -1.429688 0.753906 -1.472656 C 0.734375 -1.511719 0.726562 -1.558594 0.726562 -1.605469 C 0.726562 -1.652344 0.734375 -1.699219 0.753906 -1.738281 C 0.773438 -1.78125 0.796875 -1.816406 0.828125 -1.847656 C 0.859375 -1.878906 0.894531 -1.902344 0.933594 -1.921875 C 0.976562 -1.941406 1.019531 -1.949219 1.070312 -1.949219 M 1.070312 -0.640625 C 1.117188 -0.640625 1.164062 -0.632812 1.203125 -0.613281 C 1.246094 -0.59375 1.28125 -0.570312 1.3125 -0.542969 C 1.34375 -0.511719 1.367188 -0.476562 1.382812 -0.433594 C 1.402344 -0.390625 1.410156 -0.347656 1.410156 -0.300781 C 1.410156 -0.25 1.402344 -0.207031 1.382812 -0.164062 C 1.367188 -0.125 1.34375 -0.0859375 1.3125 -0.0546875 C 1.28125 -0.0234375 1.246094 0 1.203125 0.015625 C 1.164062 0.0351562 1.117188 0.0429688 1.070312 0.0429688 C 1.019531 0.0429688 0.976562 0.0351562 0.933594 0.015625 C 0.894531 0 0.859375 -0.0234375 0.828125 -0.0546875 C 0.796875 -0.0859375 0.773438 -0.125 0.753906 -0.164062 C 0.734375 -0.207031 0.726562 -0.25 0.726562 -0.300781 C 0.726562 -0.347656 0.734375 -0.390625 0.753906 -0.433594 C 0.773438 -0.476562 0.796875 -0.511719 0.828125 -0.542969 C 0.859375 -0.570312 0.894531 -0.59375 0.933594 -0.613281 C 0.976562 -0.632812 1.019531 -0.640625 1.070312 -0.640625 Z "/>
</g>
<g id="glyph-0-7">
</g>
<g id="glyph-0-8">
<path d="M 1.507812 -1.179688 C 1.507812 -1.25 1.503906 -1.3125 1.496094 -1.363281 C 1.484375 -1.414062 1.472656 -1.457031 1.449219 -1.488281 C 1.429688 -1.523438 1.402344 -1.546875 1.371094 -1.5625 C 1.34375 -1.578125 1.308594 -1.582031 1.269531 -1.582031 C 1.199219 -1.582031 1.128906 -1.554688 1.058594 -1.5 C 0.984375 -1.441406 0.902344 -1.351562 0.816406 -1.222656 L 0.816406 0 L 0.34375 0 L 0.34375 -1.929688 L 0.761719 -1.929688 L 0.777344 -1.648438 C 0.808594 -1.699219 0.847656 -1.742188 0.886719 -1.78125 C 0.925781 -1.820312 0.96875 -1.855469 1.019531 -1.882812 C 1.066406 -1.910156 1.121094 -1.933594 1.179688 -1.949219 C 1.242188 -1.964844 1.304688 -1.972656 1.375 -1.972656 C 1.472656 -1.972656 1.5625 -1.953125 1.636719 -1.921875 C 1.710938 -1.886719 1.773438 -1.835938 1.824219 -1.773438 C 1.878906 -1.707031 1.914062 -1.625 1.941406 -1.523438 C 1.964844 -1.425781 1.976562 -1.308594 1.972656 -1.179688 Z "/>
</g>
<g id="glyph-0-9">
<path d="M 0.722656 -1.929688 L 0.722656 -0.671875 C 0.722656 -0.566406 0.742188 -0.488281 0.78125 -0.433594 C 0.820312 -0.378906 0.882812 -0.351562 0.960938 -0.351562 C 1.039062 -0.351562 1.113281 -0.386719 1.183594 -0.449219 C 1.253906 -0.511719 1.332031 -0.597656 1.410156 -0.707031 L 1.410156 -1.929688 L 1.875 -1.929688 L 1.875 0 L 1.472656 0 L 1.460938 -0.285156 C 1.421875 -0.234375 1.378906 -0.191406 1.339844 -0.148438 C 1.296875 -0.109375 1.25 -0.0742188 1.203125 -0.046875 C 1.15625 -0.0195312 1.101562 0.00390625 1.042969 0.0195312 C 0.984375 0.0351562 0.921875 0.0429688 0.851562 0.0429688 C 0.753906 0.0429688 0.667969 0.0273438 0.59375 -0.00390625 C 0.519531 -0.0351562 0.457031 -0.0820312 0.410156 -0.140625 C 0.359375 -0.203125 0.320312 -0.273438 0.296875 -0.355469 C 0.273438 -0.4375 0.261719 -0.53125 0.261719 -0.632812 L 0.261719 -1.929688 Z "/>
</g>
<g id="glyph-0-10">
<path d="M 1.414062 0 L 1.414062 -1.257812 C 1.414062 -1.46875 1.335938 -1.574219 1.179688 -1.574219 C 1.101562 -1.574219 1.027344 -1.542969 0.953125 -1.480469 C 0.882812 -1.417969 0.808594 -1.328125 0.726562 -1.222656 L 0.726562 0 L 0.265625 0 L 0.265625 -1.929688 L 0.664062 -1.929688 L 0.675781 -1.644531 C 0.714844 -1.695312 0.757812 -1.738281 0.796875 -1.78125 C 0.839844 -1.820312 0.886719 -1.855469 0.9375 -1.882812 C 0.984375 -1.910156 1.039062 -1.933594 1.097656 -1.949219 C 1.152344 -1.964844 1.214844 -1.972656 1.289062 -1.972656 C 1.386719 -1.972656 1.472656 -1.957031 1.546875 -1.921875 C 1.621094 -1.890625 1.679688 -1.84375 1.730469 -1.785156 C 1.78125 -1.726562 1.816406 -1.65625 1.839844 -1.574219 C 1.867188 -1.492188 1.878906 -1.398438 1.878906 -1.296875 L 1.878906 0 Z "/>
</g>
<g id="glyph-0-11">
<path d="M 1.710938 -1.589844 C 1.746094 -1.546875 1.773438 -1.5 1.785156 -1.453125 C 1.800781 -1.402344 1.808594 -1.351562 1.808594 -1.304688 C 1.808594 -1.195312 1.789062 -1.101562 1.75 -1.019531 C 1.714844 -0.9375 1.660156 -0.867188 1.59375 -0.8125 C 1.527344 -0.753906 1.445312 -0.714844 1.351562 -0.683594 C 1.257812 -0.65625 1.152344 -0.640625 1.039062 -0.640625 C 0.972656 -0.640625 0.910156 -0.648438 0.851562 -0.660156 C 0.796875 -0.675781 0.753906 -0.691406 0.722656 -0.707031 C 0.703125 -0.6875 0.683594 -0.664062 0.667969 -0.636719 C 0.652344 -0.609375 0.644531 -0.582031 0.644531 -0.550781 C 0.644531 -0.527344 0.652344 -0.507812 0.660156 -0.488281 C 0.671875 -0.46875 0.6875 -0.449219 0.707031 -0.433594 C 0.726562 -0.417969 0.75 -0.40625 0.777344 -0.394531 C 0.804688 -0.386719 0.832031 -0.378906 0.867188 -0.378906 L 1.324219 -0.359375 C 1.429688 -0.359375 1.519531 -0.34375 1.605469 -0.320312 C 1.6875 -0.296875 1.757812 -0.265625 1.816406 -0.222656 C 1.875 -0.179688 1.921875 -0.125 1.957031 -0.0664062 C 1.988281 -0.00390625 2.003906 0.0664062 2.003906 0.144531 C 2.003906 0.234375 1.984375 0.320312 1.941406 0.398438 C 1.902344 0.480469 1.839844 0.546875 1.757812 0.605469 C 1.679688 0.664062 1.578125 0.710938 1.453125 0.746094 C 1.332031 0.78125 1.191406 0.796875 1.03125 0.796875 C 0.875 0.796875 0.742188 0.785156 0.628906 0.761719 C 0.515625 0.734375 0.425781 0.703125 0.355469 0.65625 C 0.28125 0.613281 0.230469 0.558594 0.195312 0.5 C 0.160156 0.4375 0.144531 0.371094 0.144531 0.296875 C 0.144531 0.25 0.148438 0.210938 0.160156 0.171875 C 0.171875 0.136719 0.191406 0.0976562 0.210938 0.0625 C 0.234375 0.0273438 0.265625 -0.00390625 0.296875 -0.0390625 C 0.332031 -0.0703125 0.371094 -0.105469 0.417969 -0.136719 C 0.359375 -0.171875 0.308594 -0.21875 0.277344 -0.273438 C 0.246094 -0.328125 0.230469 -0.390625 0.230469 -0.453125 C 0.230469 -0.496094 0.234375 -0.535156 0.246094 -0.574219 C 0.257812 -0.609375 0.273438 -0.644531 0.292969 -0.679688 C 0.308594 -0.714844 0.332031 -0.746094 0.355469 -0.777344 C 0.378906 -0.808594 0.40625 -0.839844 0.429688 -0.871094 C 0.382812 -0.917969 0.34375 -0.976562 0.3125 -1.042969 C 0.285156 -1.109375 0.269531 -1.191406 0.269531 -1.292969 C 0.269531 -1.398438 0.285156 -1.496094 0.324219 -1.578125 C 0.363281 -1.664062 0.417969 -1.734375 0.484375 -1.792969 C 0.554688 -1.847656 0.636719 -1.894531 0.730469 -1.921875 C 0.824219 -1.953125 0.925781 -1.96875 1.039062 -1.96875 C 1.097656 -1.96875 1.152344 -1.964844 1.203125 -1.957031 C 1.253906 -1.953125 1.304688 -1.945312 1.347656 -1.929688 L 2.015625 -1.929688 L 2.015625 -1.589844 L 1.710938 -1.589844 M 0.617188 0.257812 C 0.617188 0.332031 0.65625 0.386719 0.730469 0.421875 C 0.808594 0.457031 0.914062 0.476562 1.050781 0.476562 C 1.136719 0.476562 1.210938 0.464844 1.269531 0.449219 C 1.332031 0.433594 1.378906 0.410156 1.417969 0.386719 C 1.457031 0.359375 1.484375 0.328125 1.5 0.292969 C 1.515625 0.257812 1.523438 0.21875 1.523438 0.183594 C 1.523438 0.148438 1.515625 0.121094 1.5 0.0976562 C 1.484375 0.0742188 1.464844 0.0546875 1.433594 0.0351562 C 1.40625 0.0195312 1.371094 0.0078125 1.335938 0 C 1.296875 -0.0078125 1.253906 -0.0117188 1.207031 -0.015625 L 0.796875 -0.0234375 C 0.761719 0.00390625 0.730469 0.0273438 0.707031 0.0507812 C 0.683594 0.0703125 0.664062 0.09375 0.652344 0.117188 C 0.640625 0.140625 0.628906 0.160156 0.625 0.183594 C 0.621094 0.207031 0.617188 0.230469 0.617188 0.257812 M 0.695312 -1.292969 C 0.695312 -1.1875 0.726562 -1.109375 0.789062 -1.046875 C 0.847656 -0.988281 0.929688 -0.957031 1.039062 -0.957031 C 1.097656 -0.957031 1.144531 -0.964844 1.1875 -0.984375 C 1.230469 -1.003906 1.265625 -1.03125 1.292969 -1.0625 C 1.320312 -1.09375 1.34375 -1.128906 1.355469 -1.171875 C 1.371094 -1.214844 1.375 -1.257812 1.375 -1.304688 C 1.375 -1.410156 1.347656 -1.496094 1.285156 -1.554688 C 1.226562 -1.613281 1.144531 -1.644531 1.035156 -1.644531 C 0.976562 -1.644531 0.929688 -1.636719 0.886719 -1.617188 C 0.84375 -1.597656 0.808594 -1.570312 0.78125 -1.539062 C 0.753906 -1.507812 0.730469 -1.46875 0.71875 -1.425781 C 0.703125 -1.382812 0.695312 -1.339844 0.695312 -1.292969 Z "/>
</g>
</g>
</defs>
<g fill="rgb(13.333333%, 77.254902%, 36.862745%)" fill-opacity="1">
<use xlink:href="#glyph-0-0" x="30" y="22.887695"/>
<use xlink:href="#glyph-0-1" x="32" y="22.887695"/>
<use xlink:href="#glyph-0-2" x="34" y="22.887695"/>
<use xlink:href="#glyph-0-3" x="36" y="22.887695"/>
<use xlink:href="#glyph-0-4" x="38" y="22.887695"/>
<use xlink:href="#glyph-0-5" x="40" y="22.887695"/>
<use xlink:href="#glyph-0-6" x="42" y="22.887695"/>
<use xlink:href="#glyph-0-7" x="44" y="22.887695"/>
<use xlink:href="#glyph-0-8" x="46" y="22.887695"/>
<use xlink:href="#glyph-0-9" x="48" y="22.887695"/>
<use xlink:href="#glyph-0-10" x="50" y="22.887695"/>
<use xlink:href="#glyph-0-10" x="52" y="22.887695"/>
<use xlink:href="#glyph-0-3" x="54" y="22.887695"/>
<use xlink:href="#glyph-0-10" x="56" y="22.887695"/>
<use xlink:href="#glyph-0-11" x="58" y="22.887695"/>
</g>
</svg>
