<?xml version="1.0" encoding="UTF-8"?>
<svg xmlns="http://www.w3.org/2000/svg" xmlns:xlink="http://www.w3.org/1999/xlink" width="1080" height="1920" viewBox="0 0 1080 1920">
<defs>
<g>
<g id="glyph-0-0">
<path d="M 1.449219 0 L 0.765625 0 L 0.765625 -5.835938 L 1.449219 -5.835938 Z "/>
</g>
<g id="glyph-0-1">
<path d="M 2.609375 -0.0390625 C 2.449219 0.046875 2.242188 0.0898438 1.984375 0.0898438 C 1.257812 0.0898438 0.890625 -0.316406 0.890625 -1.132812 L 0.890625 -3.597656 L 0.175781 -3.597656 L 0.175781 -4.167969 L 0.890625 -4.167969 L 0.890625 -5.183594 L 1.558594 -5.398438 L 1.558594 -4.167969 L 2.609375 -4.167969 L 2.609375 -3.597656 L 1.558594 -3.597656 L 1.558594 -1.25 C 1.558594 -0.96875 1.605469 -0.769531 1.699219 -0.652344 C 1.796875 -0.53125 1.953125 -0.472656 2.171875 -0.472656 C 2.339844 -0.472656 2.484375 -0.519531 2.609375 -0.609375 Z "/>
</g>
<g id="glyph-0-2">
<path d="M 1.253906 -5.835938 L 1.253906 -4.015625 L 0.664062 -4.015625 L 0.664062 -5.835938 Z "/>
</g>
<g id="glyph-0-3">
<path d="M 0.421875 -0.152344 L 0.421875 -0.867188 C 0.785156 -0.597656 1.1875 -0.464844 1.625 -0.464844 C 2.210938 -0.464844 2.503906 -0.660156 2.503906 -1.050781 C 2.503906 -1.160156 2.476562 -1.253906 2.425781 -1.332031 C 2.378906 -1.410156 2.308594 -1.476562 2.222656 -1.539062 C 2.136719 -1.597656 2.039062 -1.652344 1.921875 -1.699219 C 1.808594 -1.746094 1.683594 -1.796875 1.550781 -1.847656 C 1.367188 -1.921875 1.203125 -1.996094 1.0625 -2.070312 C 0.925781 -2.144531 0.808594 -2.226562 0.714844 -2.320312 C 0.621094 -2.414062 0.550781 -2.519531 0.503906 -2.640625 C 0.453125 -2.761719 0.429688 -2.898438 0.429688 -3.058594 C 0.429688 -3.253906 0.476562 -3.429688 0.566406 -3.578125 C 0.65625 -3.730469 0.773438 -3.855469 0.921875 -3.957031 C 1.074219 -4.058594 1.242188 -4.136719 1.433594 -4.1875 C 1.625 -4.238281 1.824219 -4.265625 2.027344 -4.265625 C 2.386719 -4.265625 2.710938 -4.203125 2.996094 -4.078125 L 2.996094 -3.402344 C 2.6875 -3.601562 2.335938 -3.703125 1.9375 -3.703125 C 1.8125 -3.703125 1.699219 -3.6875 1.597656 -3.660156 C 1.5 -3.632812 1.414062 -3.589844 1.339844 -3.539062 C 1.269531 -3.488281 1.214844 -3.425781 1.175781 -3.355469 C 1.132812 -3.28125 1.113281 -3.203125 1.113281 -3.117188 C 1.113281 -3.007812 1.132812 -2.917969 1.175781 -2.84375 C 1.214844 -2.769531 1.269531 -2.707031 1.347656 -2.648438 C 1.421875 -2.59375 1.515625 -2.539062 1.625 -2.496094 C 1.730469 -2.449219 1.855469 -2.398438 1.992188 -2.34375 C 2.179688 -2.273438 2.34375 -2.199219 2.488281 -2.125 C 2.636719 -2.050781 2.761719 -1.96875 2.863281 -1.875 C 2.96875 -1.78125 3.046875 -1.671875 3.101562 -1.550781 C 3.160156 -1.429688 3.1875 -1.28125 3.1875 -1.113281 C 3.1875 -0.910156 3.140625 -0.730469 3.050781 -0.578125 C 2.957031 -0.425781 2.835938 -0.300781 2.683594 -0.199219 C 2.535156 -0.0976562 2.359375 -0.0234375 2.160156 0.0234375 C 1.960938 0.0742188 1.753906 0.0976562 1.539062 0.0976562 C 1.109375 0.0976562 0.738281 0.015625 0.421875 -0.152344 Z "/>
</g>
<g id="glyph-0-4">
</g>
<g id="glyph-0-5">
<path d="M 4.132812 0 L 3.464844 0 L 3.464844 -2.375 C 3.464844 -3.261719 3.144531 -3.703125 2.5 -3.703125 C 2.164062 -3.703125 1.890625 -3.578125 1.671875 -3.328125 C 1.453125 -3.074219 1.34375 -2.757812 1.34375 -2.375 L 1.34375 0 L 0.675781 0 L 0.675781 -4.167969 L 1.34375 -4.167969 L 1.34375 -3.476562 L 1.359375 -3.476562 C 1.671875 -4 2.128906 -4.265625 2.726562 -4.265625 C 3.183594 -4.265625 3.53125 -4.117188 3.773438 -3.824219 C 4.011719 -3.527344 4.132812 -3.101562 4.132812 -2.546875 Z "/>
</g>
<g id="glyph-0-6">
<path d="M 2.417969 0.0976562 C 1.800781 0.0976562 1.308594 -0.0976562 0.941406 -0.484375 C 0.574219 -0.875 0.390625 -1.390625 0.390625 -2.035156 C 0.390625 -2.734375 0.582031 -3.28125 0.964844 -3.675781 C 1.347656 -4.066406 1.863281 -4.265625 2.515625 -4.265625 C 3.136719 -4.265625 3.621094 -4.074219 3.96875 -3.691406 C 4.316406 -3.308594 4.492188 -2.777344 4.492188 -2.097656 C 4.492188 -1.433594 4.304688 -0.902344 3.929688 -0.503906 C 3.554688 -0.101562 3.050781 0.0976562 2.417969 0.0976562 M 2.464844 -3.703125 C 2.039062 -3.703125 1.699219 -3.558594 1.449219 -3.265625 C 1.199219 -2.972656 1.074219 -2.570312 1.074219 -2.058594 C 1.074219 -1.566406 1.199219 -1.175781 1.453125 -0.890625 C 1.703125 -0.605469 2.042969 -0.464844 2.464844 -0.464844 C 2.898438 -0.464844 3.230469 -0.605469 3.460938 -0.882812 C 3.691406 -1.164062 3.808594 -1.558594 3.808594 -2.074219 C 3.808594 -2.597656 3.691406 -2.996094 3.460938 -3.28125 C 3.230469 -3.5625 2.898438 -3.703125 2.464844 -3.703125 Z "/>
</g>
<g id="glyph-0-7">
<path d="M 3.992188 -4.167969 L 2.074219 0.667969 C 1.734375 1.53125 1.253906 1.960938 0.632812 1.960938 C 0.460938 1.960938 0.316406 1.945312 0.199219 1.910156 L 0.199219 1.308594 C 0.34375 1.359375 0.476562 1.382812 0.59375 1.382812 C 0.929688 1.382812 1.183594 1.183594 1.351562 0.78125 L 1.683594 -0.0078125 L 0.0585938 -4.167969 L 0.796875 -4.167969 L 1.925781 -0.960938 C 1.9375 -0.917969 1.964844 -0.8125 2.011719 -0.644531 L 2.035156 -0.644531 C 2.046875 -0.707031 2.074219 -0.8125 2.117188 -0.953125 L 3.300781 -4.167969 Z "/>
</g>
<g id="glyph-0-8">
<path d="M 4.042969 0 L 3.378906 0 L 3.378906 -0.660156 L 3.359375 -0.660156 C 3.085938 -0.15625 2.65625 0.0976562 2.074219 0.0976562 C 1.082031 0.0976562 0.585938 -0.492188 0.585938 -1.675781 L 0.585938 -4.167969 L 1.25 -4.167969 L 1.25 -1.78125 C 1.25 -0.902344 1.585938 -0.464844 2.257812 -0.464844 C 2.582031 -0.464844 2.851562 -0.582031 3.0625 -0.824219 C 3.273438 -1.0625 3.378906 -1.378906 3.378906 -1.765625 L 3.378906 -4.167969 L 4.042969 -4.167969 Z "/>
</g>
<g id="glyph-0-9">
<path d="M 2.847656 -3.492188 C 2.730469 -3.582031 2.5625 -3.625 2.34375 -3.625 C 2.058594 -3.625 1.820312 -3.492188 1.628906 -3.222656 C 1.4375 -2.953125 1.34375 -2.585938 1.34375 -2.125 L 1.34375 0 L 0.675781 0 L 0.675781 -4.167969 L 1.34375 -4.167969 L 1.34375 -3.308594 L 1.359375 -3.308594 C 1.453125 -3.601562 1.597656 -3.828125 1.792969 -3.992188 C 1.988281 -4.15625 2.207031 -4.238281 2.449219 -4.238281 C 2.625 -4.238281 2.757812 -4.222656 2.847656 -4.183594 Z "/>
</g>
<g id="glyph-0-10">
<path d="M 4.132812 0 L 3.199219 0 L 1.359375 -2 L 1.34375 -2 L 1.34375 0 L 0.675781 0 L 0.675781 -6.167969 L 1.34375 -6.167969 L 1.34375 -2.257812 L 1.359375 -2.257812 L 3.109375 -4.167969 L 3.984375 -4.167969 L 2.050781 -2.15625 Z "/>
</g>
<g id="glyph-0-11">
<path d="M 1.015625 -5.222656 C 0.898438 -5.222656 0.796875 -5.265625 0.710938 -5.347656 C 0.628906 -5.429688 0.585938 -5.53125 0.585938 -5.65625 C 0.585938 -5.78125 0.628906 -5.882812 0.710938 -5.96875 C 0.796875 -6.050781 0.898438 -6.089844 1.015625 -6.089844 C 1.140625 -6.089844 1.242188 -6.050781 1.328125 -5.96875 C 1.414062 -5.882812 1.457031 -5.78125 1.457031 -5.65625 C 1.457031 -5.535156 1.414062 -5.433594 1.328125 -5.351562 C 1.242188 -5.265625 1.140625 -5.222656 1.015625 -5.222656 M 1.34375 0 L 0.675781 0 L 0.675781 -4.167969 L 1.34375 -4.167969 Z "/>
</g>
<g id="glyph-0-12">
<path d="M 1.34375 0 L 0.675781 0 L 0.675781 -6.167969 L 1.34375 -6.167969 Z "/>
</g>
<g id="glyph-0-13">
<path d="M 0.90625 0.0898438 C 0.78125 0.0898438 0.675781 0.0429688 0.589844 -0.0429688 C 0.5 -0.132812 0.457031 -0.242188 0.457031 -0.367188 C 0.457031 -0.492188 0.5 -0.597656 0.589844 -0.691406 C 0.675781 -0.78125 0.78125 -0.824219 0.90625 -0.824219 C 1.035156 -0.824219 1.144531 -0.78125 1.234375 -0.691406 C 1.324219 -0.597656 1.367188 -0.492188 1.367188 -0.367188 C 1.367188 -0.242188 1.324219 -0.132812 1.234375 -0.0429688 C 1.144531 0.0429688 1.035156 0.0898438 0.90625 0.0898438 Z "/>
</g>
</g>
</defs>
<g fill="rgb(89.803922%, 90.588235%, 92.156863%)" fill-opacity="1">
<use xlink:href="#glyph-0-0" x="30" y="28.992188"/>
<use xlink:href="#glyph-0-1" x="32" y="28.992188"/>
<use xlink:href="#glyph-0-2" x="35" y="28.992188"/>
<use xlink:href="#glyph-0-3" x="37" y="28.992188"/>
<use xlink:href="#glyph-0-4" x="41" y="28.992188"/>
<use xlink:href="#glyph-0-5" x="43" y="28.992188"/>
<use xlink:href="#glyph-0-6" x="48" y="28.992188"/>
<use xlink:href="#glyph-0-1" x="53" y="28.992188"/>
<use xlink:href="#glyph-0-4" x="56" y="28.992188"/>
<use xlink:href="#glyph-0-7" x="58" y="28.992188"/>
<use xlink:href="#glyph-0-6" x="62" y="28.992188"/>
<use xlink:href="#glyph-0-8" x="67" y="28.992188"/>
<use xlink:href="#glyph-0-9" x="72" y="28.992188"/>
<use xlink:href="#glyph-0-4" x="75" y="28.992188"/>
<use xlink:href="#glyph-0-3" x="77" y="28.992188"/>
<use xlink:href="#glyph-0-10" x="81" y="28.992188"/>
<use xlink:href="#glyph-0-11" x="85" y="28.992188"/>
<use xlink:href="#glyph-0-12" x="87" y="28.992188"/>
<use xlink:href="#glyph-0-12" x="89" y="28.992188"/>
<use xlink:href="#glyph-0-3" x="91" y="28.992188"/>
<use xlink:href="#glyph-0-13" x="95" y="28.992188"/>
</g>
</svg>
