<?xml version="1.0" encoding="UTF-8"?>
<svg xmlns="http://www.w3.org/2000/svg" xmlns:xlink="http://www.w3.org/1999/xlink" width="1080" height="1920" viewBox="0 0 1080 1920">
<defs>
<g>
<g id="glyph-0-0">
<path d="M 3.644531 0 L 0.382812 0 L 0.382812 -1.058594 L 1.253906 -1.058594 L 1.253906 -5 L 0.382812 -5 L 0.382812 -6.058594 L 3.644531 -6.058594 L 3.644531 -5 L 2.773438 -5 L 2.773438 -1.058594 L 3.644531 -1.058594 Z "/>
</g>
<g id="glyph-0-1">
<path d="M 2.292969 0.0898438 C 1.714844 0.0898438 1.292969 -0.03125 1.027344 -0.269531 C 0.761719 -0.507812 0.628906 -0.898438 0.628906 -1.441406 L 0.628906 -3.578125 L 0.0859375 -3.578125 L 0.0859375 -4.570312 L 0.628906 -4.570312 L 0.628906 -5.875 L 2.054688 -5.875 L 2.054688 -4.570312 L 3.425781 -4.570312 L 3.425781 -3.578125 L 2.054688 -3.578125 L 2.054688 -1.957031 C 2.054688 -1.796875 2.054688 -1.65625 2.058594 -1.539062 C 2.0625 -1.417969 2.082031 -1.3125 2.125 -1.214844 C 2.160156 -1.121094 2.230469 -1.046875 2.324219 -0.992188 C 2.421875 -0.933594 2.5625 -0.90625 2.746094 -0.90625 C 2.824219 -0.90625 2.921875 -0.921875 3.046875 -0.957031 C 3.167969 -0.988281 3.253906 -1.019531 3.304688 -1.046875 L 3.425781 -1.046875 L 3.425781 -0.0390625 C 3.269531 0 3.105469 0.03125 2.933594 0.0546875 C 2.761719 0.078125 2.546875 0.0898438 2.292969 0.0898438 Z "/>
</g>
<g id="glyph-0-2">
<path d="M 1.8125 -6.332031 L 1.566406 -3.933594 L 0.726562 -3.933594 L 0.484375 -6.332031 Z "/>
</g>
<g id="glyph-0-3">
<path d="M 1.9375 0.125 C 1.601562 0.125 1.28125 0.0898438 0.984375 0.015625 C 0.683594 -0.0585938 0.433594 -0.140625 0.238281 -0.238281 L 0.238281 -1.445312 L 0.359375 -1.445312 C 0.425781 -1.394531 0.503906 -1.335938 0.589844 -1.273438 C 0.675781 -1.210938 0.796875 -1.144531 0.953125 -1.078125 C 1.085938 -1.015625 1.234375 -0.960938 1.402344 -0.917969 C 1.570312 -0.871094 1.75 -0.851562 1.945312 -0.851562 C 2.144531 -0.851562 2.324219 -0.882812 2.476562 -0.945312 C 2.628906 -1.007812 2.707031 -1.105469 2.707031 -1.242188 C 2.707031 -1.347656 2.671875 -1.425781 2.601562 -1.480469 C 2.53125 -1.535156 2.390625 -1.585938 2.1875 -1.636719 C 2.082031 -1.664062 1.945312 -1.691406 1.777344 -1.722656 C 1.613281 -1.753906 1.464844 -1.789062 1.339844 -1.832031 C 0.980469 -1.941406 0.710938 -2.105469 0.53125 -2.324219 C 0.351562 -2.542969 0.261719 -2.832031 0.261719 -3.1875 C 0.261719 -3.390625 0.308594 -3.582031 0.402344 -3.761719 C 0.496094 -3.941406 0.632812 -4.101562 0.8125 -4.242188 C 0.996094 -4.382812 1.21875 -4.492188 1.488281 -4.574219 C 1.753906 -4.65625 2.054688 -4.695312 2.390625 -4.695312 C 2.710938 -4.695312 3.007812 -4.664062 3.277344 -4.601562 C 3.542969 -4.535156 3.769531 -4.460938 3.953125 -4.371094 L 3.953125 -3.214844 L 3.839844 -3.214844 C 3.792969 -3.253906 3.714844 -3.304688 3.609375 -3.367188 C 3.503906 -3.429688 3.398438 -3.484375 3.300781 -3.53125 C 3.179688 -3.585938 3.046875 -3.632812 2.898438 -3.667969 C 2.75 -3.703125 2.601562 -3.71875 2.445312 -3.71875 C 2.238281 -3.71875 2.066406 -3.683594 1.921875 -3.613281 C 1.78125 -3.542969 1.707031 -3.449219 1.707031 -3.332031 C 1.707031 -3.230469 1.746094 -3.148438 1.816406 -3.089844 C 1.886719 -3.027344 2.039062 -2.96875 2.273438 -2.914062 C 2.398438 -2.882812 2.535156 -2.855469 2.695312 -2.824219 C 2.855469 -2.796875 3.007812 -2.757812 3.152344 -2.710938 C 3.480469 -2.605469 3.730469 -2.449219 3.898438 -2.242188 C 4.070312 -2.039062 4.15625 -1.765625 4.15625 -1.429688 C 4.15625 -1.214844 4.105469 -1.011719 4.003906 -0.816406 C 3.902344 -0.621094 3.761719 -0.457031 3.578125 -0.324219 C 3.382812 -0.183594 3.152344 -0.0703125 2.886719 0.0078125 C 2.621094 0.0859375 2.304688 0.125 1.9375 0.125 Z "/>
</g>
<g id="glyph-0-4">
</g>
<g id="glyph-0-5">
<path d="M 4.808594 -4.570312 L 2.503906 1.675781 L 0.972656 1.675781 L 1.664062 -0.109375 L -0.0117188 -4.570312 L 1.484375 -4.570312 L 2.445312 -1.703125 L 3.34375 -4.570312 Z "/>
</g>
<g id="glyph-0-6">
<path d="M 4.929688 -2.28125 C 4.929688 -1.53125 4.726562 -0.9375 4.316406 -0.507812 C 3.902344 -0.0742188 3.324219 0.140625 2.570312 0.140625 C 1.824219 0.140625 1.246094 -0.0742188 0.832031 -0.507812 C 0.417969 -0.9375 0.210938 -1.53125 0.210938 -2.28125 C 0.210938 -3.042969 0.417969 -3.636719 0.832031 -4.066406 C 1.246094 -4.496094 1.824219 -4.710938 2.570312 -4.710938 C 3.320312 -4.710938 3.902344 -4.496094 4.3125 -4.0625 C 4.726562 -3.628906 4.929688 -3.035156 4.929688 -2.28125 M 3.472656 -2.273438 C 3.472656 -2.546875 3.449219 -2.773438 3.402344 -2.953125 C 3.359375 -3.132812 3.296875 -3.277344 3.21875 -3.386719 C 3.132812 -3.5 3.039062 -3.578125 2.933594 -3.625 C 2.828125 -3.667969 2.707031 -3.691406 2.570312 -3.691406 C 2.445312 -3.691406 2.328125 -3.671875 2.226562 -3.632812 C 2.121094 -3.59375 2.027344 -3.515625 1.941406 -3.40625 C 1.859375 -3.300781 1.792969 -3.15625 1.746094 -2.96875 C 1.695312 -2.785156 1.671875 -2.554688 1.671875 -2.273438 C 1.671875 -1.996094 1.695312 -1.769531 1.742188 -1.597656 C 1.789062 -1.425781 1.847656 -1.289062 1.921875 -1.183594 C 1.996094 -1.078125 2.089844 -1 2.207031 -0.953125 C 2.320312 -0.902344 2.445312 -0.878906 2.582031 -0.878906 C 2.699219 -0.878906 2.8125 -0.902344 2.933594 -0.953125 C 3.050781 -1 3.144531 -1.074219 3.214844 -1.171875 C 3.296875 -1.289062 3.363281 -1.429688 3.40625 -1.59375 C 3.449219 -1.757812 3.472656 -1.984375 3.472656 -2.273438 Z "/>
</g>
<g id="glyph-0-7">
<path d="M 4.789062 0 L 3.363281 0 L 3.363281 -0.503906 C 3.117188 -0.296875 2.890625 -0.140625 2.683594 -0.0351562 C 2.480469 0.0742188 2.234375 0.125 1.949219 0.125 C 1.496094 0.125 1.144531 -0.015625 0.890625 -0.304688 C 0.636719 -0.589844 0.507812 -1.019531 0.507812 -1.59375 L 0.507812 -4.570312 L 1.941406 -4.570312 L 1.941406 -2.304688 C 1.941406 -2.066406 1.945312 -1.875 1.960938 -1.726562 C 1.972656 -1.574219 2 -1.449219 2.046875 -1.347656 C 2.089844 -1.25 2.15625 -1.179688 2.25 -1.132812 C 2.339844 -1.082031 2.464844 -1.058594 2.628906 -1.058594 C 2.730469 -1.058594 2.847656 -1.082031 2.984375 -1.132812 C 3.121094 -1.179688 3.25 -1.246094 3.363281 -1.332031 L 3.363281 -4.570312 L 4.789062 -4.570312 Z "/>
</g>
<g id="glyph-0-8">
<path d="M 3.613281 -3.222656 L 3.496094 -3.222656 C 3.441406 -3.242188 3.363281 -3.257812 3.257812 -3.265625 C 3.15625 -3.273438 3.042969 -3.28125 2.917969 -3.28125 C 2.769531 -3.28125 2.613281 -3.257812 2.449219 -3.214844 C 2.285156 -3.171875 2.125 -3.121094 1.96875 -3.058594 L 1.96875 0 L 0.546875 0 L 0.546875 -4.570312 L 1.96875 -4.570312 L 1.96875 -3.914062 C 2.035156 -3.972656 2.125 -4.050781 2.238281 -4.140625 C 2.355469 -4.230469 2.460938 -4.304688 2.554688 -4.359375 C 2.660156 -4.421875 2.777344 -4.472656 2.914062 -4.519531 C 3.050781 -4.5625 3.183594 -4.585938 3.304688 -4.585938 C 3.351562 -4.585938 3.402344 -4.585938 3.457031 -4.582031 C 3.515625 -4.578125 3.566406 -4.574219 3.613281 -4.570312 Z "/>
</g>
<g id="glyph-0-9">
<path d="M 2.789062 0.121094 C 2.410156 0.121094 2.066406 0.0742188 1.75 -0.0195312 C 1.4375 -0.117188 1.167969 -0.261719 0.9375 -0.460938 C 0.707031 -0.65625 0.53125 -0.90625 0.402344 -1.207031 C 0.273438 -1.507812 0.210938 -1.859375 0.210938 -2.265625 C 0.210938 -2.703125 0.28125 -3.074219 0.417969 -3.382812 C 0.558594 -3.6875 0.746094 -3.941406 0.980469 -4.136719 C 1.207031 -4.328125 1.476562 -4.46875 1.785156 -4.558594 C 2.09375 -4.648438 2.414062 -4.695312 2.746094 -4.695312 C 3 -4.695312 3.25 -4.667969 3.503906 -4.609375 C 3.753906 -4.550781 4.007812 -4.457031 4.265625 -4.328125 L 4.265625 -3.109375 L 4.082031 -3.109375 C 4.023438 -3.164062 3.953125 -3.222656 3.871094 -3.289062 C 3.789062 -3.351562 3.699219 -3.414062 3.601562 -3.464844 C 3.496094 -3.523438 3.382812 -3.570312 3.25 -3.609375 C 3.121094 -3.652344 2.976562 -3.671875 2.816406 -3.671875 C 2.453125 -3.671875 2.171875 -3.542969 1.972656 -3.289062 C 1.773438 -3.035156 1.671875 -2.695312 1.671875 -2.265625 C 1.671875 -1.808594 1.777344 -1.464844 1.992188 -1.242188 C 2.203125 -1.015625 2.488281 -0.902344 2.839844 -0.902344 C 3.019531 -0.902344 3.175781 -0.921875 3.3125 -0.964844 C 3.449219 -1.003906 3.5625 -1.054688 3.660156 -1.109375 C 3.757812 -1.167969 3.839844 -1.226562 3.90625 -1.289062 C 3.972656 -1.347656 4.03125 -1.402344 4.082031 -1.453125 L 4.265625 -1.453125 L 4.265625 -0.230469 C 4.183594 -0.195312 4.089844 -0.15625 3.980469 -0.109375 C 3.875 -0.0625 3.765625 -0.0273438 3.652344 0.00390625 C 3.515625 0.0429688 3.386719 0.0703125 3.265625 0.0898438 C 3.144531 0.113281 2.984375 0.121094 2.789062 0.121094 Z "/>
</g>
<g id="glyph-0-10">
<path d="M 4.824219 0 L 3.394531 0 L 3.394531 -2.265625 C 3.394531 -2.449219 3.386719 -2.632812 3.371094 -2.816406 C 3.355469 -3 3.328125 -3.136719 3.289062 -3.222656 C 3.238281 -3.324219 3.167969 -3.398438 3.074219 -3.445312 C 2.984375 -3.488281 2.859375 -3.511719 2.707031 -3.511719 C 2.589844 -3.511719 2.472656 -3.488281 2.351562 -3.445312 C 2.234375 -3.402344 2.105469 -3.332031 1.96875 -3.238281 L 1.96875 0 L 0.546875 0 L 0.546875 -4.570312 L 1.96875 -4.570312 L 1.96875 -4.066406 C 2.203125 -4.261719 2.429688 -4.417969 2.652344 -4.527344 C 2.871094 -4.640625 3.117188 -4.695312 3.386719 -4.695312 C 3.851562 -4.695312 4.207031 -4.546875 4.457031 -4.253906 C 4.703125 -3.960938 4.824219 -3.535156 4.824219 -2.972656 Z "/>
</g>
<g id="glyph-0-11">
<path d="M 2.886719 0.121094 C 2.023438 0.121094 1.359375 -0.0859375 0.902344 -0.496094 C 0.441406 -0.910156 0.210938 -1.496094 0.210938 -2.257812 C 0.210938 -3.003906 0.425781 -3.601562 0.855469 -4.042969 C 1.28125 -4.488281 1.882812 -4.710938 2.652344 -4.710938 C 3.351562 -4.710938 3.878906 -4.523438 4.230469 -4.144531 C 4.585938 -3.769531 4.761719 -3.230469 4.761719 -2.527344 L 4.761719 -2.015625 L 1.640625 -2.015625 C 1.652344 -1.800781 1.699219 -1.625 1.773438 -1.484375 C 1.851562 -1.339844 1.949219 -1.226562 2.074219 -1.144531 C 2.195312 -1.058594 2.339844 -1 2.503906 -0.960938 C 2.664062 -0.925781 2.84375 -0.90625 3.035156 -0.90625 C 3.199219 -0.90625 3.363281 -0.925781 3.523438 -0.960938 C 3.683594 -1 3.832031 -1.046875 3.964844 -1.105469 C 4.078125 -1.160156 4.1875 -1.214844 4.285156 -1.273438 C 4.386719 -1.332031 4.464844 -1.386719 4.527344 -1.433594 L 4.679688 -1.433594 L 4.679688 -0.257812 C 4.5625 -0.210938 4.457031 -0.167969 4.359375 -0.128906 C 4.261719 -0.0898438 4.132812 -0.046875 3.964844 -0.0078125 C 3.808594 0.03125 3.648438 0.0625 3.484375 0.0859375 C 3.320312 0.109375 3.121094 0.121094 2.886719 0.121094 M 3.355469 -2.871094 C 3.347656 -3.171875 3.277344 -3.402344 3.148438 -3.558594 C 3.015625 -3.71875 2.8125 -3.796875 2.542969 -3.796875 C 2.265625 -3.796875 2.050781 -3.714844 1.894531 -3.546875 C 1.738281 -3.382812 1.652344 -3.15625 1.636719 -2.871094 Z "/>
</g>
<g id="glyph-0-12">
<path d="M 1.96875 0 L 0.546875 0 L 0.546875 -4.570312 L 1.96875 -4.570312 L 1.96875 0 M 2.011719 -5.21875 L 0.503906 -5.21875 L 0.503906 -6.332031 L 2.011719 -6.332031 Z "/>
</g>
<g id="glyph-0-13">
<path d="M 2.023438 0 L 0.582031 0 L 0.582031 -1.597656 L 2.023438 -1.597656 Z "/>
</g>
</g>
</defs>
<g fill="rgb(89.803922%, 90.588235%, 92.156863%)" fill-opacity="1">
<use xlink:href="#glyph-0-0" x="30" y="28.336914"/>
<use xlink:href="#glyph-0-1" x="34" y="28.336914"/>
<use xlink:href="#glyph-0-2" x="37" y="28.336914"/>
<use xlink:href="#glyph-0-3" x="39" y="28.336914"/>
<use xlink:href="#glyph-0-4" x="43" y="28.336914"/>
<use xlink:href="#glyph-0-5" x="45" y="28.336914"/>
<use xlink:href="#glyph-0-6" x="50" y="28.336914"/>
<use xlink:href="#glyph-0-7" x="55" y="28.336914"/>
<use xlink:href="#glyph-0-8" x="60" y="28.336914"/>
<use xlink:href="#glyph-0-4" x="64" y="28.336914"/>
<use xlink:href="#glyph-0-9" x="66" y="28.336914"/>
<use xlink:href="#glyph-0-6" x="70" y="28.336914"/>
<use xlink:href="#glyph-0-10" x="75" y="28.336914"/>
<use xlink:href="#glyph-0-10" x="80" y="28.336914"/>
<use xlink:href="#glyph-0-11" x="85" y="28.336914"/>
<use xlink:href="#glyph-0-9" x="90" y="28.336914"/>
<use xlink:href="#glyph-0-1" x="94" y="28.336914"/>
<use xlink:href="#glyph-0-12" x="97" y="28.336914"/>
<use xlink:href="#glyph-0-6" x="100" y="28.336914"/>
<use xlink:href="#glyph-0-10" x="105" y="28.336914"/>
<use xlink:href="#glyph-0-13" x="110" y="28.336914"/>
</g>
</svg>
