<?xml version="1.0" encoding="UTF-8"?>
<svg xmlns="http://www.w3.org/2000/svg" xmlns:xlink="http://www.w3.org/1999/xlink" width="1280" height="720" viewBox="0 0 1280 720">
<defs>
<g>
<g id="glyph-0-0">
<path d="M 8.675781 0 L 6.730469 0 L 3.203125 -5.378906 C 2.996094 -5.691406 2.855469 -5.929688 2.773438 -6.085938 L 2.75 -6.085938 C 2.78125 -5.785156 2.800781 -5.324219 2.800781 -4.703125 L 2.800781 0 L 0.980469 0 L 0.980469 -8.558594 L 3.054688 -8.558594 L 6.453125 -3.347656 C 6.605469 -3.113281 6.75 -2.878906 6.882812 -2.648438 L 6.90625 -2.648438 C 6.875 -2.847656 6.855469 -3.242188 6.855469 -3.824219 L 6.855469 -8.558594 L 8.675781 -8.558594 Z "/>
</g>
<g id="glyph-0-1">
<path d="M 3.707031 0.148438 C 2.6875 0.148438 1.886719 -0.136719 1.304688 -0.707031 C 0.722656 -1.277344 0.429688 -2.054688 0.429688 -3.03125 C 0.429688 -4.042969 0.730469 -4.832031 1.335938 -5.402344 C 1.941406 -5.976562 2.757812 -6.261719 3.789062 -6.261719 C 4.804688 -6.261719 5.601562 -5.976562 6.175781 -5.402344 C 6.753906 -4.832031 7.042969 -4.078125 7.042969 -3.140625 C 7.042969 -2.125 6.746094 -1.324219 6.148438 -0.734375 C 5.554688 -0.144531 4.742188 0.148438 3.707031 0.148438 M 3.753906 -4.816406 C 3.308594 -4.816406 2.960938 -4.664062 2.714844 -4.355469 C 2.46875 -4.050781 2.34375 -3.617188 2.34375 -3.054688 C 2.34375 -1.882812 2.820312 -1.296875 3.765625 -1.296875 C 4.667969 -1.296875 5.121094 -1.898438 5.121094 -3.101562 C 5.121094 -4.246094 4.664062 -4.816406 3.753906 -4.816406 Z "/>
</g>
<g id="glyph-0-2">
</g>
<g id="glyph-0-3">
<path d="M 0.394531 -0.160156 L 0.394531 -1.6875 C 0.703125 -1.503906 1.011719 -1.363281 1.320312 -1.269531 C 1.628906 -1.179688 1.921875 -1.132812 2.195312 -1.132812 C 2.53125 -1.132812 2.792969 -1.179688 2.988281 -1.269531 C 3.179688 -1.363281 3.277344 -1.503906 3.277344 -1.6875 C 3.277344 -1.808594 3.234375 -1.90625 3.144531 -1.988281 C 3.058594 -2.066406 2.945312 -2.136719 2.808594 -2.195312 C 2.671875 -2.257812 2.519531 -2.308594 2.355469 -2.355469 C 2.195312 -2.40625 2.035156 -2.457031 1.886719 -2.519531 C 1.644531 -2.609375 1.429688 -2.707031 1.246094 -2.8125 C 1.058594 -2.917969 0.902344 -3.042969 0.777344 -3.179688 C 0.652344 -3.320312 0.558594 -3.480469 0.492188 -3.664062 C 0.425781 -3.847656 0.394531 -4.0625 0.394531 -4.316406 C 0.394531 -4.65625 0.46875 -4.953125 0.617188 -5.199219 C 0.765625 -5.445312 0.964844 -5.648438 1.214844 -5.804688 C 1.464844 -5.960938 1.746094 -6.078125 2.066406 -6.148438 C 2.386719 -6.222656 2.722656 -6.261719 3.066406 -6.261719 C 3.339844 -6.261719 3.613281 -6.238281 3.890625 -6.199219 C 4.167969 -6.15625 4.445312 -6.09375 4.714844 -6.015625 L 4.714844 -4.558594 C 4.476562 -4.699219 4.21875 -4.804688 3.949219 -4.871094 C 3.675781 -4.941406 3.40625 -4.976562 3.144531 -4.976562 C 3.023438 -4.976562 2.90625 -4.964844 2.796875 -4.945312 C 2.6875 -4.921875 2.589844 -4.890625 2.507812 -4.847656 C 2.421875 -4.808594 2.355469 -4.753906 2.308594 -4.6875 C 2.261719 -4.621094 2.238281 -4.546875 2.238281 -4.464844 C 2.238281 -4.351562 2.273438 -4.257812 2.34375 -4.175781 C 2.417969 -4.097656 2.511719 -4.03125 2.625 -3.972656 C 2.742188 -3.914062 2.871094 -3.863281 3.011719 -3.816406 C 3.152344 -3.769531 3.292969 -3.722656 3.433594 -3.675781 C 3.683594 -3.589844 3.910156 -3.492188 4.113281 -3.390625 C 4.316406 -3.285156 4.488281 -3.164062 4.632812 -3.027344 C 4.78125 -2.886719 4.890625 -2.722656 4.96875 -2.535156 C 5.046875 -2.347656 5.085938 -2.125 5.085938 -1.867188 C 5.085938 -1.507812 5.007812 -1.195312 4.847656 -0.941406 C 4.691406 -0.683594 4.484375 -0.472656 4.222656 -0.3125 C 3.960938 -0.152344 3.660156 -0.0351562 3.320312 0.0390625 C 2.980469 0.113281 2.628906 0.148438 2.261719 0.148438 C 1.589844 0.148438 0.96875 0.046875 0.394531 -0.160156 Z "/>
</g>
<g id="glyph-0-4">
<path d="M 6.285156 -2.519531 L 2.296875 -2.519531 C 2.363281 -1.632812 2.921875 -1.1875 3.976562 -1.1875 C 4.648438 -1.1875 5.238281 -1.347656 5.746094 -1.664062 L 5.746094 -0.304688 C 5.183594 -0.00390625 4.449219 0.148438 3.546875 0.148438 C 2.558594 0.148438 1.792969 -0.125 1.246094 -0.671875 C 0.703125 -1.21875 0.429688 -1.980469 0.429688 -2.960938 C 0.429688 -3.976562 0.722656 -4.777344 1.3125 -5.371094 C 1.902344 -5.964844 2.625 -6.261719 3.484375 -6.261719 C 4.375 -6.261719 5.066406 -5.996094 5.554688 -5.464844 C 6.039062 -4.9375 6.285156 -4.21875 6.285156 -3.3125 L 6.285156 -2.519531 M 4.535156 -3.675781 C 4.535156 -4.550781 4.183594 -4.988281 3.472656 -4.988281 C 3.171875 -4.988281 2.910156 -4.863281 2.6875 -4.613281 C 2.46875 -4.363281 2.332031 -4.050781 2.285156 -3.675781 Z "/>
</g>
<g id="glyph-0-5">
<path d="M 4.488281 -0.0703125 C 4.210938 0.0742188 3.789062 0.148438 3.230469 0.148438 C 1.898438 0.148438 1.234375 -0.542969 1.234375 -1.921875 L 1.234375 -4.722656 L 0.246094 -4.722656 L 0.246094 -6.109375 L 1.234375 -6.109375 L 1.234375 -7.429688 L 3.117188 -7.96875 L 3.117188 -6.109375 L 4.488281 -6.109375 L 4.488281 -4.722656 L 3.117188 -4.722656 L 3.117188 -2.25 C 3.117188 -1.613281 3.367188 -1.296875 3.875 -1.296875 C 4.070312 -1.296875 4.277344 -1.351562 4.488281 -1.46875 Z "/>
</g>
<g id="glyph-0-6">
<path d="M 6.601562 0 L 4.722656 0 L 4.722656 -0.929688 L 4.691406 -0.929688 C 4.226562 -0.210938 3.601562 0.148438 2.824219 0.148438 C 1.40625 0.148438 0.699219 -0.707031 0.699219 -2.421875 L 0.699219 -6.109375 L 2.578125 -6.109375 L 2.578125 -2.589844 C 2.578125 -1.726562 2.921875 -1.296875 3.605469 -1.296875 C 3.941406 -1.296875 4.214844 -1.414062 4.417969 -1.648438 C 4.621094 -1.886719 4.722656 -2.207031 4.722656 -2.613281 L 4.722656 -6.109375 L 6.601562 -6.109375 Z "/>
</g>
<g id="glyph-0-7">
<path d="M 2.703125 -0.710938 L 2.679688 -0.710938 L 2.679688 2.8125 L 0.792969 2.8125 L 0.792969 -6.109375 L 2.679688 -6.109375 L 2.679688 -5.191406 L 2.703125 -5.191406 C 3.167969 -5.90625 3.824219 -6.261719 4.667969 -6.261719 C 5.457031 -6.261719 6.070312 -5.988281 6.503906 -5.445312 C 6.933594 -4.902344 7.148438 -4.164062 7.148438 -3.230469 C 7.148438 -2.210938 6.898438 -1.390625 6.394531 -0.777344 C 5.890625 -0.160156 5.222656 0.148438 4.386719 0.148438 C 3.652344 0.148438 3.089844 -0.136719 2.703125 -0.710938 M 2.648438 -3.21875 L 2.648438 -2.726562 C 2.648438 -2.304688 2.761719 -1.960938 2.984375 -1.695312 C 3.207031 -1.429688 3.5 -1.296875 3.863281 -1.296875 C 4.292969 -1.296875 4.625 -1.460938 4.859375 -1.792969 C 5.097656 -2.125 5.214844 -2.597656 5.214844 -3.203125 C 5.214844 -4.277344 4.796875 -4.816406 3.960938 -4.816406 C 3.578125 -4.816406 3.261719 -4.671875 3.015625 -4.378906 C 2.773438 -4.085938 2.648438 -3.699219 2.648438 -3.21875 Z "/>
</g>
<g id="glyph-0-8">
<path d="M 1.636719 0.148438 C 1.324219 0.148438 1.066406 0.0546875 0.859375 -0.136719 C 0.652344 -0.328125 0.550781 -0.5625 0.550781 -0.839844 C 0.550781 -1.128906 0.65625 -1.363281 0.867188 -1.546875 C 1.082031 -1.730469 1.347656 -1.820312 1.664062 -1.820312 C 1.988281 -1.820312 2.25 -1.726562 2.457031 -1.542969 C 2.660156 -1.359375 2.761719 -1.125 2.761719 -0.839844 C 2.761719 -0.550781 2.660156 -0.3125 2.449219 -0.128906 C 2.242188 0.0585938 1.96875 0.148438 1.636719 0.148438 Z "/>
</g>
</g>
</defs>
<g fill="rgb(89.803922%, 90.588235%, 92.156863%)" fill-opacity="1">
<use xlink:href="#glyph-0-0" x="30" y="33.189453"/>
<use xlink:href="#glyph-0-1" x="40" y="33.189453"/>
<use xlink:href="#glyph-0-2" x="47" y="33.189453"/>
<use xlink:href="#glyph-0-3" x="50" y="33.189453"/>
<use xlink:href="#glyph-0-4" x="55" y="33.189453"/>
<use xlink:href="#glyph-0-5" x="62" y="33.189453"/>
<use xlink:href="#glyph-0-6" x="67" y="33.189453"/>
<use xlink:href="#glyph-0-7" x="74" y="33.189453"/>
<use xlink:href="#glyph-0-8" x="82" y="33.189453"/>
</g>
</svg>
