<?xml version="1.0" encoding="UTF-8"?>
<svg xmlns="http://www.w3.org/2000/svg" xmlns:xlink="http://www.w3.org/1999/xlink" width="1080" height="1920" viewBox="0 0 1080 1920">
<defs>
<g>
<g id="glyph-0-0">
<path d="M 2.066406 -1.25 C 2.066406 -1.027344 2.042969 -0.832031 1.988281 -0.667969 C 1.9375 -0.503906 1.863281 -0.371094 1.773438 -0.265625 C 1.679688 -0.160156 1.574219 -0.0820312 1.449219 -0.03125 C 1.328125 0.0195312 1.195312 0.0429688 1.054688 0.0429688 C 0.726562 0.0429688 0.480469 -0.0664062 0.316406 -0.28125 C 0.152344 -0.5 0.0703125 -0.816406 0.0703125 -1.230469 C 0.0703125 -1.453125 0.0976562 -1.648438 0.148438 -1.8125 C 0.203125 -1.976562 0.273438 -2.109375 0.367188 -2.214844 C 0.457031 -2.320312 0.566406 -2.398438 0.6875 -2.449219 C 0.8125 -2.5 0.945312 -2.523438 1.085938 -2.523438 C 1.410156 -2.523438 1.65625 -2.414062 1.820312 -2.199219 C 1.984375 -1.984375 2.066406 -1.667969 2.066406 -1.25 M 1.574219 -1.230469 C 1.574219 -1.523438 1.535156 -1.742188 1.457031 -1.886719 C 1.378906 -2.03125 1.25 -2.101562 1.070312 -2.101562 C 0.980469 -2.101562 0.902344 -2.082031 0.839844 -2.046875 C 0.777344 -2.007812 0.722656 -1.953125 0.683594 -1.882812 C 0.640625 -1.808594 0.613281 -1.722656 0.59375 -1.613281 C 0.574219 -1.507812 0.5625 -1.386719 0.5625 -1.25 C 0.5625 -0.957031 0.605469 -0.738281 0.683594 -0.59375 C 0.761719 -0.449219 0.890625 -0.378906 1.070312 -0.378906 C 1.160156 -0.378906 1.234375 -0.398438 1.300781 -0.433594 C 1.363281 -0.472656 1.417969 -0.527344 1.457031 -0.597656 C 1.496094 -0.671875 1.527344 -0.757812 1.546875 -0.863281 C 1.566406 -0.972656 1.574219 -1.09375 1.574219 -1.230469 Z "/>
</g>
<g id="glyph-0-1">
<path d="M 1.464844 0 L 0.71875 -1.199219 L 0.71875 0 L 0.246094 0 L 0.246094 -2.480469 L 0.71875 -2.480469 L 0.71875 -1.351562 L 1.460938 -2.480469 L 2.027344 -2.480469 L 1.183594 -1.300781 L 2.070312 0 Z "/>
</g>
<g id="glyph-0-2">
</g>
<g id="glyph-0-3">
<path d="M 1.9375 -0.75 C 1.9375 -0.613281 1.910156 -0.496094 1.863281 -0.398438 C 1.8125 -0.296875 1.742188 -0.214844 1.652344 -0.148438 C 1.5625 -0.0820312 1.457031 -0.0351562 1.332031 -0.00390625 C 1.207031 0.0273438 1.070312 0.0429688 0.925781 0.0429688 C 0.792969 0.0429688 0.667969 0.0351562 0.546875 0.0195312 C 0.425781 0.00390625 0.304688 -0.0195312 0.1875 -0.0546875 L 0.1875 -0.515625 C 0.246094 -0.496094 0.304688 -0.476562 0.367188 -0.460938 C 0.433594 -0.441406 0.496094 -0.425781 0.558594 -0.414062 C 0.625 -0.398438 0.6875 -0.390625 0.75 -0.382812 C 0.8125 -0.375 0.875 -0.371094 0.933594 -0.371094 C 1.023438 -0.371094 1.097656 -0.378906 1.160156 -0.394531 C 1.222656 -0.410156 1.273438 -0.429688 1.3125 -0.457031 C 1.351562 -0.480469 1.378906 -0.515625 1.398438 -0.550781 C 1.414062 -0.585938 1.425781 -0.628906 1.425781 -0.671875 C 1.425781 -0.734375 1.40625 -0.785156 1.371094 -0.824219 C 1.335938 -0.867188 1.292969 -0.902344 1.234375 -0.933594 C 1.175781 -0.964844 1.113281 -0.996094 1.039062 -1.019531 C 0.96875 -1.046875 0.894531 -1.074219 0.816406 -1.101562 C 0.742188 -1.128906 0.667969 -1.164062 0.59375 -1.199219 C 0.523438 -1.238281 0.457031 -1.28125 0.402344 -1.335938 C 0.34375 -1.390625 0.296875 -1.457031 0.261719 -1.53125 C 0.226562 -1.605469 0.210938 -1.699219 0.210938 -1.804688 C 0.210938 -1.902344 0.230469 -1.992188 0.265625 -2.082031 C 0.300781 -2.167969 0.355469 -2.246094 0.429688 -2.308594 C 0.507812 -2.375 0.605469 -2.425781 0.722656 -2.464844 C 0.84375 -2.503906 0.984375 -2.523438 1.15625 -2.523438 C 1.203125 -2.523438 1.253906 -2.523438 1.308594 -2.515625 C 1.363281 -2.511719 1.417969 -2.507812 1.46875 -2.5 C 1.519531 -2.492188 1.570312 -2.484375 1.621094 -2.476562 C 1.667969 -2.464844 1.714844 -2.457031 1.753906 -2.445312 L 1.753906 -2.019531 C 1.714844 -2.035156 1.671875 -2.046875 1.621094 -2.058594 C 1.574219 -2.074219 1.523438 -2.085938 1.472656 -2.09375 C 1.421875 -2.101562 1.371094 -2.109375 1.316406 -2.117188 C 1.265625 -2.121094 1.214844 -2.125 1.167969 -2.125 C 1.085938 -2.125 1.019531 -2.117188 0.960938 -2.101562 C 0.902344 -2.089844 0.855469 -2.070312 0.820312 -2.046875 C 0.785156 -2.023438 0.757812 -1.996094 0.742188 -1.960938 C 0.722656 -1.925781 0.714844 -1.890625 0.714844 -1.847656 C 0.714844 -1.796875 0.734375 -1.75 0.769531 -1.714844 C 0.804688 -1.675781 0.847656 -1.644531 0.90625 -1.613281 C 0.964844 -1.582031 1.03125 -1.554688 1.101562 -1.53125 C 1.175781 -1.503906 1.25 -1.476562 1.328125 -1.445312 C 1.402344 -1.417969 1.476562 -1.382812 1.550781 -1.34375 C 1.625 -1.304688 1.6875 -1.261719 1.746094 -1.207031 C 1.804688 -1.152344 1.851562 -1.085938 1.886719 -1.011719 C 1.917969 -0.9375 1.9375 -0.851562 1.9375 -0.75 Z "/>
</g>
<g id="glyph-0-4">
<path d="M 1.824219 -0.0742188 C 1.734375 -0.0390625 1.640625 -0.0117188 1.542969 0.0078125 C 1.445312 0.0234375 1.34375 0.0351562 1.234375 0.0351562 C 1.082031 0.0351562 0.945312 0.0117188 0.824219 -0.0273438 C 0.703125 -0.0703125 0.597656 -0.132812 0.515625 -0.214844 C 0.429688 -0.296875 0.363281 -0.398438 0.320312 -0.519531 C 0.273438 -0.640625 0.253906 -0.78125 0.253906 -0.941406 C 0.253906 -1.097656 0.277344 -1.234375 0.324219 -1.363281 C 0.375 -1.488281 0.441406 -1.59375 0.53125 -1.683594 C 0.621094 -1.769531 0.726562 -1.839844 0.851562 -1.886719 C 0.976562 -1.9375 1.117188 -1.960938 1.269531 -1.960938 C 1.394531 -1.960938 1.5 -1.953125 1.585938 -1.941406 C 1.671875 -1.925781 1.746094 -1.910156 1.816406 -1.890625 L 1.816406 -1.441406 C 1.738281 -1.480469 1.652344 -1.507812 1.558594 -1.53125 C 1.46875 -1.550781 1.382812 -1.5625 1.300781 -1.5625 C 1.210938 -1.5625 1.136719 -1.546875 1.066406 -1.519531 C 1 -1.488281 0.941406 -1.449219 0.894531 -1.398438 C 0.847656 -1.347656 0.8125 -1.28125 0.789062 -1.207031 C 0.761719 -1.132812 0.75 -1.054688 0.75 -0.964844 C 0.75 -0.871094 0.761719 -0.789062 0.789062 -0.714844 C 0.816406 -0.640625 0.855469 -0.582031 0.902344 -0.527344 C 0.953125 -0.476562 1.011719 -0.4375 1.078125 -0.410156 C 1.148438 -0.382812 1.222656 -0.371094 1.304688 -0.371094 C 1.347656 -0.371094 1.390625 -0.375 1.433594 -0.378906 C 1.480469 -0.382812 1.523438 -0.394531 1.570312 -0.402344 C 1.613281 -0.414062 1.660156 -0.425781 1.703125 -0.441406 C 1.746094 -0.453125 1.785156 -0.46875 1.824219 -0.484375 Z "/>
</g>
<g id="glyph-0-5">
<path d="M 1.945312 -1.113281 C 1.945312 -1.082031 1.945312 -1.039062 1.941406 -0.988281 C 1.941406 -0.9375 1.9375 -0.890625 1.933594 -0.847656 L 0.664062 -0.847656 C 0.664062 -0.761719 0.675781 -0.6875 0.703125 -0.621094 C 0.730469 -0.558594 0.765625 -0.503906 0.8125 -0.460938 C 0.859375 -0.417969 0.917969 -0.382812 0.984375 -0.359375 C 1.050781 -0.339844 1.125 -0.328125 1.207031 -0.328125 C 1.300781 -0.328125 1.398438 -0.332031 1.507812 -0.347656 C 1.613281 -0.363281 1.726562 -0.386719 1.839844 -0.417969 L 1.839844 -0.0507812 C 1.789062 -0.0390625 1.738281 -0.0234375 1.679688 -0.0117188 C 1.621094 0 1.5625 0.0078125 1.5 0.015625 C 1.441406 0.0273438 1.378906 0.03125 1.316406 0.0351562 C 1.253906 0.0429688 1.195312 0.0429688 1.136719 0.0429688 C 0.988281 0.0429688 0.855469 0.0234375 0.742188 -0.0195312 C 0.625 -0.0625 0.527344 -0.121094 0.445312 -0.203125 C 0.363281 -0.285156 0.300781 -0.386719 0.257812 -0.507812 C 0.214844 -0.628906 0.195312 -0.765625 0.195312 -0.925781 C 0.195312 -1.082031 0.214844 -1.222656 0.257812 -1.351562 C 0.300781 -1.480469 0.363281 -1.589844 0.441406 -1.683594 C 0.519531 -1.773438 0.613281 -1.847656 0.726562 -1.894531 C 0.839844 -1.945312 0.964844 -1.972656 1.101562 -1.972656 C 1.238281 -1.972656 1.359375 -1.949219 1.464844 -1.90625 C 1.570312 -1.863281 1.65625 -1.804688 1.726562 -1.730469 C 1.800781 -1.652344 1.851562 -1.5625 1.890625 -1.457031 C 1.925781 -1.351562 1.945312 -1.238281 1.945312 -1.113281 M 1.472656 -1.179688 C 1.476562 -1.253906 1.464844 -1.320312 1.445312 -1.378906 C 1.425781 -1.433594 1.398438 -1.480469 1.363281 -1.515625 C 1.328125 -1.554688 1.289062 -1.582031 1.242188 -1.597656 C 1.195312 -1.617188 1.144531 -1.625 1.09375 -1.625 C 0.976562 -1.625 0.878906 -1.585938 0.804688 -1.507812 C 0.730469 -1.429688 0.6875 -1.320312 0.671875 -1.179688 Z "/>
</g>
<g id="glyph-0-6">
<path d="M 1.414062 0 L 1.414062 -1.257812 C 1.414062 -1.46875 1.335938 -1.574219 1.179688 -1.574219 C 1.101562 -1.574219 1.027344 -1.542969 0.953125 -1.480469 C 0.882812 -1.417969 0.808594 -1.328125 0.726562 -1.222656 L 0.726562 0 L 0.265625 0 L 0.265625 -1.929688 L 0.664062 -1.929688 L 0.675781 -1.644531 C 0.714844 -1.695312 0.757812 -1.738281 0.796875 -1.78125 C 0.839844 -1.820312 0.886719 -1.855469 0.9375 -1.882812 C 0.984375 -1.910156 1.039062 -1.933594 1.097656 -1.949219 C 1.152344 -1.964844 1.214844 -1.972656 1.289062 -1.972656 C 1.386719 -1.972656 1.472656 -1.957031 1.546875 -1.921875 C 1.621094 -1.890625 1.679688 -1.84375 1.730469 -1.785156 C 1.78125 -1.726562 1.816406 -1.65625 1.839844 -1.574219 C 1.867188 -1.492188 1.878906 -1.398438 1.878906 -1.296875 L 1.878906 0 Z "/>
</g>
<g id="glyph-0-7">
<path d="M 1.472656 0 L 1.460938 -0.253906 C 1.421875 -0.210938 1.378906 -0.171875 1.335938 -0.132812 C 1.289062 -0.0976562 1.242188 -0.0664062 1.1875 -0.0390625 C 1.136719 -0.0117188 1.078125 0.0078125 1.015625 0.0234375 C 0.953125 0.0351562 0.882812 0.0429688 0.808594 0.0429688 C 0.710938 0.0429688 0.625 0.0273438 0.550781 0 C 0.472656 -0.0273438 0.410156 -0.0703125 0.359375 -0.121094 C 0.308594 -0.171875 0.273438 -0.234375 0.246094 -0.308594 C 0.21875 -0.382812 0.207031 -0.464844 0.207031 -0.550781 C 0.207031 -0.644531 0.226562 -0.726562 0.265625 -0.804688 C 0.304688 -0.882812 0.363281 -0.949219 0.441406 -1.003906 C 0.519531 -1.058594 0.621094 -1.105469 0.738281 -1.136719 C 0.855469 -1.167969 0.996094 -1.183594 1.15625 -1.183594 L 1.40625 -1.183594 L 1.40625 -1.300781 C 1.40625 -1.347656 1.398438 -1.394531 1.386719 -1.433594 C 1.371094 -1.472656 1.351562 -1.507812 1.320312 -1.535156 C 1.289062 -1.5625 1.246094 -1.582031 1.199219 -1.597656 C 1.148438 -1.613281 1.089844 -1.621094 1.015625 -1.621094 C 0.902344 -1.621094 0.789062 -1.609375 0.679688 -1.582031 C 0.566406 -1.558594 0.460938 -1.519531 0.355469 -1.472656 L 0.355469 -1.84375 C 0.449219 -1.878906 0.554688 -1.910156 0.675781 -1.933594 C 0.796875 -1.960938 0.921875 -1.972656 1.054688 -1.972656 C 1.195312 -1.972656 1.320312 -1.957031 1.421875 -1.929688 C 1.523438 -1.902344 1.609375 -1.863281 1.675781 -1.808594 C 1.742188 -1.753906 1.792969 -1.683594 1.824219 -1.605469 C 1.855469 -1.523438 1.871094 -1.425781 1.871094 -1.316406 L 1.871094 0 L 1.472656 0 M 1.40625 -0.851562 L 1.125 -0.851562 C 1.046875 -0.851562 0.980469 -0.84375 0.925781 -0.828125 C 0.871094 -0.816406 0.824219 -0.792969 0.792969 -0.765625 C 0.757812 -0.742188 0.734375 -0.710938 0.71875 -0.675781 C 0.699219 -0.640625 0.691406 -0.601562 0.691406 -0.5625 C 0.691406 -0.484375 0.71875 -0.425781 0.769531 -0.382812 C 0.820312 -0.34375 0.890625 -0.324219 0.976562 -0.324219 C 1.039062 -0.324219 1.109375 -0.347656 1.175781 -0.394531 C 1.246094 -0.441406 1.324219 -0.507812 1.40625 -0.59375 Z "/>
</g>
<g id="glyph-0-8">
<path d="M 1.507812 -1.179688 C 1.507812 -1.25 1.503906 -1.3125 1.496094 -1.363281 C 1.484375 -1.414062 1.472656 -1.457031 1.449219 -1.488281 C 1.429688 -1.523438 1.402344 -1.546875 1.371094 -1.5625 C 1.34375 -1.578125 1.308594 -1.582031 1.269531 -1.582031 C 1.199219 -1.582031 1.128906 -1.554688 1.058594 -1.5 C 0.984375 -1.441406 0.902344 -1.351562 0.816406 -1.222656 L 0.816406 0 L 0.34375 0 L 0.34375 -1.929688 L 0.761719 -1.929688 L 0.777344 -1.648438 C 0.808594 -1.699219 0.847656 -1.742188 0.886719 -1.78125 C 0.925781 -1.820312 0.96875 -1.855469 1.019531 -1.882812 C 1.066406 -1.910156 1.121094 -1.933594 1.179688 -1.949219 C 1.242188 -1.964844 1.304688 -1.972656 1.375 -1.972656 C 1.472656 -1.972656 1.5625 -1.953125 1.636719 -1.921875 C 1.710938 -1.886719 1.773438 -1.835938 1.824219 -1.773438 C 1.878906 -1.707031 1.914062 -1.625 1.941406 -1.523438 C 1.964844 -1.425781 1.976562 -1.308594 1.972656 -1.179688 Z "/>
</g>
<g id="glyph-0-9">
<path d="M 1.398438 -2.457031 C 1.398438 -2.414062 1.390625 -2.375 1.375 -2.339844 C 1.363281 -2.304688 1.339844 -2.269531 1.3125 -2.242188 C 1.285156 -2.214844 1.253906 -2.195312 1.21875 -2.179688 C 1.179688 -2.164062 1.140625 -2.15625 1.097656 -2.15625 C 1.054688 -2.15625 1.015625 -2.164062 0.976562 -2.179688 C 0.941406 -2.195312 0.90625 -2.214844 0.878906 -2.242188 C 0.851562 -2.269531 0.832031 -2.304688 0.816406 -2.339844 C 0.800781 -2.375 0.792969 -2.414062 0.792969 -2.457031 C 0.792969 -2.5 0.800781 -2.539062 0.816406 -2.574219 C 0.832031 -2.613281 0.851562 -2.644531 0.878906 -2.671875 C 0.90625 -2.699219 0.941406 -2.722656 0.976562 -2.738281 C 1.015625 -2.753906 1.054688 -2.761719 1.097656 -2.761719 C 1.140625 -2.761719 1.179688 -2.753906 1.21875 -2.738281 C 1.253906 -2.722656 1.285156 -2.699219 1.3125 -2.671875 C 1.339844 -2.644531 1.363281 -2.613281 1.375 -2.574219 C 1.390625 -2.539062 1.398438 -2.5 1.398438 -2.457031 M 0.886719 -1.570312 L 0.34375 -1.570312 L 0.34375 -1.929688 L 1.363281 -1.929688 L 1.363281 -0.359375 L 1.917969 -0.359375 L 1.917969 0 L 0.273438 0 L 0.273438 -0.359375 L 0.886719 -0.359375 Z "/>
</g>
<g id="glyph-0-10">
<path d="M 2 -0.980469 C 2 -0.828125 1.980469 -0.6875 1.9375 -0.5625 C 1.894531 -0.4375 1.832031 -0.328125 1.75 -0.238281 C 1.671875 -0.148438 1.570312 -0.078125 1.453125 -0.03125 C 1.335938 0.0195312 1.199219 0.0429688 1.050781 0.0429688 C 0.90625 0.0429688 0.777344 0.0234375 0.667969 -0.0195312 C 0.554688 -0.0625 0.457031 -0.125 0.378906 -0.207031 C 0.300781 -0.289062 0.242188 -0.394531 0.199219 -0.515625 C 0.15625 -0.640625 0.136719 -0.789062 0.136719 -0.953125 C 0.136719 -1.105469 0.160156 -1.246094 0.203125 -1.371094 C 0.246094 -1.496094 0.308594 -1.601562 0.390625 -1.691406 C 0.472656 -1.78125 0.570312 -1.847656 0.6875 -1.898438 C 0.808594 -1.945312 0.941406 -1.972656 1.089844 -1.972656 C 1.234375 -1.972656 1.359375 -1.949219 1.472656 -1.90625 C 1.585938 -1.863281 1.683594 -1.800781 1.761719 -1.71875 C 1.839844 -1.636719 1.898438 -1.53125 1.941406 -1.40625 C 1.980469 -1.285156 2 -1.140625 2 -0.980469 M 1.519531 -0.96875 C 1.519531 -1.167969 1.480469 -1.320312 1.40625 -1.417969 C 1.332031 -1.519531 1.21875 -1.570312 1.074219 -1.570312 C 0.992188 -1.570312 0.921875 -1.554688 0.867188 -1.523438 C 0.808594 -1.492188 0.761719 -1.449219 0.726562 -1.394531 C 0.6875 -1.339844 0.660156 -1.273438 0.644531 -1.199219 C 0.628906 -1.125 0.617188 -1.046875 0.617188 -0.964844 C 0.617188 -0.761719 0.660156 -0.613281 0.742188 -0.511719 C 0.820312 -0.40625 0.933594 -0.355469 1.074219 -0.355469 C 1.148438 -0.355469 1.21875 -0.371094 1.273438 -0.402344 C 1.332031 -0.433594 1.378906 -0.476562 1.414062 -0.53125 C 1.449219 -0.585938 1.476562 -0.652344 1.492188 -0.726562 C 1.511719 -0.800781 1.519531 -0.882812 1.519531 -0.96875 Z "/>
</g>
<g id="glyph-0-11">
<path d="M 1.855469 -0.566406 C 1.855469 -0.457031 1.832031 -0.363281 1.78125 -0.285156 C 1.734375 -0.207031 1.667969 -0.144531 1.589844 -0.0976562 C 1.507812 -0.046875 1.417969 -0.0117188 1.316406 0.0117188 C 1.214844 0.03125 1.109375 0.0429688 1.003906 0.0429688 C 0.859375 0.0429688 0.734375 0.0351562 0.617188 0.0234375 C 0.503906 0.0117188 0.398438 -0.0078125 0.296875 -0.0351562 L 0.296875 -0.453125 C 0.414062 -0.402344 0.535156 -0.367188 0.652344 -0.34375 C 0.769531 -0.324219 0.882812 -0.3125 0.988281 -0.3125 C 1.109375 -0.3125 1.199219 -0.332031 1.261719 -0.371094 C 1.320312 -0.40625 1.351562 -0.457031 1.351562 -0.519531 C 1.351562 -0.550781 1.34375 -0.574219 1.332031 -0.601562 C 1.320312 -0.625 1.292969 -0.648438 1.261719 -0.667969 C 1.226562 -0.691406 1.175781 -0.714844 1.113281 -0.738281 C 1.050781 -0.761719 0.964844 -0.789062 0.863281 -0.816406 C 0.769531 -0.84375 0.6875 -0.875 0.613281 -0.90625 C 0.542969 -0.941406 0.484375 -0.980469 0.4375 -1.027344 C 0.390625 -1.070312 0.355469 -1.125 0.332031 -1.183594 C 0.308594 -1.246094 0.296875 -1.316406 0.296875 -1.394531 C 0.296875 -1.472656 0.3125 -1.546875 0.347656 -1.617188 C 0.386719 -1.6875 0.4375 -1.75 0.507812 -1.800781 C 0.578125 -1.855469 0.664062 -1.894531 0.769531 -1.925781 C 0.875 -1.957031 1 -1.972656 1.140625 -1.972656 C 1.261719 -1.972656 1.367188 -1.964844 1.460938 -1.953125 C 1.554688 -1.941406 1.640625 -1.925781 1.710938 -1.910156 L 1.710938 -1.53125 C 1.601562 -1.566406 1.496094 -1.59375 1.402344 -1.609375 C 1.304688 -1.621094 1.207031 -1.628906 1.113281 -1.628906 C 1.019531 -1.628906 0.941406 -1.613281 0.882812 -1.578125 C 0.828125 -1.542969 0.796875 -1.496094 0.796875 -1.4375 C 0.796875 -1.40625 0.804688 -1.378906 0.816406 -1.359375 C 0.824219 -1.335938 0.847656 -1.3125 0.882812 -1.292969 C 0.914062 -1.269531 0.960938 -1.246094 1.023438 -1.222656 C 1.082031 -1.199219 1.164062 -1.175781 1.261719 -1.148438 C 1.371094 -1.117188 1.464844 -1.082031 1.542969 -1.046875 C 1.617188 -1.007812 1.679688 -0.96875 1.726562 -0.921875 C 1.773438 -0.878906 1.804688 -0.824219 1.824219 -0.765625 C 1.84375 -0.710938 1.855469 -0.640625 1.855469 -0.566406 Z "/>
</g>
<g id="glyph-0-12">
<path d="M 0.886719 -2.324219 L 0.34375 -2.324219 L 0.34375 -2.683594 L 1.363281 -2.683594 L 1.363281 -0.359375 L 1.917969 -0.359375 L 1.917969 0 L 0.273438 0 L 0.273438 -0.359375 L 0.886719 -0.359375 Z "/>
</g>
<g id="glyph-0-13">
<path d="M 1.34375 0 L 0.808594 0 L 0.0429688 -1.929688 L 0.558594 -1.929688 L 0.960938 -0.835938 L 1.082031 -0.480469 L 1.199219 -0.820312 L 1.601562 -1.929688 L 2.101562 -1.929688 Z "/>
</g>
<g id="glyph-0-14">
<path d="M 1.476562 0 L 1.464844 -0.285156 C 1.425781 -0.234375 1.382812 -0.191406 1.339844 -0.148438 C 1.296875 -0.109375 1.25 -0.0742188 1.203125 -0.046875 C 1.152344 -0.0195312 1.101562 0.00390625 1.042969 0.0195312 C 0.988281 0.0351562 0.925781 0.0429688 0.855469 0.0429688 C 0.742188 0.0429688 0.640625 0.0195312 0.550781 -0.0234375 C 0.464844 -0.0703125 0.390625 -0.136719 0.328125 -0.21875 C 0.269531 -0.304688 0.222656 -0.40625 0.191406 -0.527344 C 0.160156 -0.644531 0.144531 -0.78125 0.144531 -0.929688 C 0.144531 -1.105469 0.167969 -1.257812 0.21875 -1.390625 C 0.269531 -1.519531 0.339844 -1.625 0.425781 -1.710938 C 0.515625 -1.796875 0.621094 -1.859375 0.742188 -1.902344 C 0.863281 -1.941406 0.996094 -1.964844 1.140625 -1.964844 C 1.1875 -1.964844 1.234375 -1.960938 1.285156 -1.953125 C 1.332031 -1.949219 1.375 -1.941406 1.414062 -1.929688 L 1.414062 -2.683594 L 1.878906 -2.683594 L 1.878906 0 L 1.476562 0 M 0.628906 -0.949219 C 0.628906 -0.84375 0.636719 -0.753906 0.652344 -0.675781 C 0.667969 -0.601562 0.6875 -0.539062 0.71875 -0.492188 C 0.746094 -0.445312 0.78125 -0.410156 0.824219 -0.386719 C 0.863281 -0.363281 0.910156 -0.351562 0.964844 -0.351562 C 1.042969 -0.351562 1.117188 -0.386719 1.1875 -0.449219 C 1.257812 -0.511719 1.335938 -0.597656 1.414062 -0.707031 L 1.414062 -1.550781 C 1.378906 -1.566406 1.332031 -1.578125 1.277344 -1.585938 C 1.226562 -1.59375 1.171875 -1.597656 1.117188 -1.597656 C 1.042969 -1.597656 0.976562 -1.582031 0.914062 -1.554688 C 0.855469 -1.523438 0.804688 -1.480469 0.761719 -1.425781 C 0.71875 -1.367188 0.6875 -1.300781 0.664062 -1.21875 C 0.640625 -1.140625 0.628906 -1.050781 0.628906 -0.949219 Z "/>
</g>
</g>
</defs>
<g fill="rgb(13.333333%, 77.254902%, 36.862745%)" fill-opacity="1">
<use xlink:href="#glyph-0-0" x="30" y="22.887695"/>
<use xlink:href="#glyph-0-1" x="32" y="22.887695"/>
<use xlink:href="#glyph-0-2" x="34" y="22.887695"/>
<use xlink:href="#glyph-0-3" x="36" y="22.887695"/>
<use xlink:href="#glyph-0-4" x="38" y="22.887695"/>
<use xlink:href="#glyph-0-5" x="40" y="22.887695"/>
<use xlink:href="#glyph-0-6" x="42" y="22.887695"/>
<use xlink:href="#glyph-0-7" x="44" y="22.887695"/>
<use xlink:href="#glyph-0-8" x="46" y="22.887695"/>
<use xlink:href="#glyph-0-9" x="48" y="22.887695"/>
<use xlink:href="#glyph-0-10" x="50" y="22.887695"/>
<use xlink:href="#glyph-0-2" x="52" y="22.887695"/>
<use xlink:href="#glyph-0-8" x="54" y="22.887695"/>
<use xlink:href="#glyph-0-5" x="56" y="22.887695"/>
<use xlink:href="#glyph-0-11" x="58" y="22.887695"/>
<use xlink:href="#glyph-0-10" x="60" y="22.887695"/>
<use xlink:href="#glyph-0-12" x="62" y="22.887695"/>
<use xlink:href="#glyph-0-13" x="64" y="22.887695"/>
<use xlink:href="#glyph-0-5" x="66" y="22.887695"/>
<use xlink:href="#glyph-0-14" x="68" y="22.887695"/>
</g>
</svg>
